<?xml version="1.0" encoding="UTF-8"?>
<svg width="41px" height="50px" viewBox="0 0 41 50" version="1.1" xmlns="http://www.w3.org/2000/svg" xmlns:xlink="http://www.w3.org/1999/xlink">
    <!-- Generator: Sketch 44 (41411) - http://www.bohemiancoding.com/sketch -->
    <title>delivery-icon</title>
    <desc>Created with Sketch.</desc>
    <defs></defs>
    <g id="Welcome" stroke="none" stroke-width="1" fill="none" fill-rule="evenodd">
        <g id="Home" transform="translate(-742.000000, -1735.000000)" stroke="#333E48" fill="#333E48">
            <g id="CCM" transform="translate(42.000000, 1569.000000)">
                <g id="step-3" transform="translate(640.000000, 67.000000)">
                    <g id="delivery-icon" transform="translate(61.000000, 99.000000)">
                        <path d="M19.2179348,16.3086957 C22.9673913,16.3086957 25.9804348,13.3701087 26.0766304,9.60923913 L26.0809783,9.04619565 L29.1282609,9.05163043 C30.0978261,9.05163043 30.3684783,8.59021739 30.4407609,8.39184783 C30.6586957,7.7875 29.9369565,7.35271739 29.3206522,7.06086957 L26.1728261,5.23913043 L27.4733696,1.98804348 C27.6217391,1.6173913 27.5983696,1.24456522 27.4097826,0.965217391 C27.2,0.655434783 26.8326087,0.497826087 26.3679348,0.554347826 L13.7375,2.13369565 C12.9809783,2.22880435 12.388587,2.9 12.388587,3.66195652 L12.388587,10.1271739 L12.3913043,10.1826087 C12.7657609,13.675 15.701087,16.3086957 19.2179348,16.3086957 L19.2179348,16.3086957 Z M13.4277174,3.66195652 C13.4277174,3.42608696 13.6331522,3.19402174 13.8668478,3.16467391 L26.4967391,1.58586957 C26.4967391,1.58586957 26.5342391,1.53858696 26.5092391,1.60217391 L25.1717391,4.94456522 L13.4271739,4.94456522 L13.4271739,3.66195652 L13.4277174,3.66195652 Z M25.3842391,5.98369565 L28.8375,7.97934783 C28.8608696,7.99076087 28.8831522,8.00163043 28.9048913,8.0125 L25.0494565,8.00543478 L25.0380435,9.5923913 C24.9565217,12.776087 22.3994565,15.2695652 19.2179348,15.2695652 C16.2418478,15.2695652 13.7576087,13.048913 13.4277174,10.098913 L13.4277174,5.98369565 L25.3842391,5.98369565 L25.3842391,5.98369565 Z" id="Shape"></path>
                        <path d="M38.1907609,36.7141304 L34.2255435,26.2005435 C32.7293478,20.738587 27.7451087,16.926087 22.0961957,16.926087 L16.9869565,16.926087 C12.5907609,16.926087 8.58097826,19.1804348 6.28695652,22.9195652 C5.93804348,23.3983696 5.07826087,25.4451087 4.95163043,25.8711957 L0.941847826,36.6978261 C-1.1798913,41.8440217 2.77826087,45.2842391 2.8125,45.3130435 C3.92826087,46.2880435 5.12228261,46.4771739 6.0701087,46.5358696 L6.0701087,48.8918478 C6.0701087,49.2038043 6.32336957,49.4570652 6.63586957,49.4570652 L32.4456522,49.4570652 C32.7576087,49.4570652 33.011413,49.2038043 33.011413,48.8918478 L33.011413,46.6190217 C34.7695652,46.5179348 35.4141304,46.0233696 36.2032609,45.413587 L36.3108696,45.3293478 C36.351087,45.2945652 40.3097826,41.8429348 38.1907609,36.7141304 L38.1907609,36.7141304 Z M31.8782609,48.3255435 L7.20054348,48.3255435 L7.20054348,46.4983696 C8.05706522,46.3038043 8.8548913,45.7961957 9.20923913,45.4304348 C10.15,44.4625 10.6641304,43.0798913 10.5836957,41.7309783 C10.5125,40.5347826 9.9798913,39.4766304 9.08315217,38.7516304 C8.49945652,38.2798913 7.70054348,38.0059783 7.20054348,37.8695652 L7.20054348,30.7994565 L19.5788043,30.7994565 C19.5798913,30.7994565 19.5804348,30.8 19.5815217,30.8 L31.8782609,30.8 L31.8782609,37.9706522 C31.3891304,38.0619565 30.6619565,38.2798913 30.0369565,38.8092391 C29.163587,39.5467391 28.6494565,40.5961957 28.5923913,41.761413 C28.5293478,43.0342391 29.0119565,44.298913 29.9217391,45.2353261 L29.9755435,45.2896739 C30.2907609,45.6141304 30.9625,46.3038043 31.8782609,46.5456522 L31.8782609,48.3255435 L31.8782609,48.3255435 Z M7.61630435,29.6657609 L9.79402174,25.8923913 L19.0146739,25.8923913 L19.0146739,29.6657609 L7.61630435,29.6657609 L7.61630435,29.6657609 Z M20.1494565,29.6652174 L20.1494565,25.8923913 L29.4679348,25.8923913 L31.4956522,29.6652174 L20.1494565,29.6652174 L20.1494565,29.6652174 Z M35.5972826,44.4505435 L35.5108696,44.5184783 C34.7391304,45.1146739 34.2603261,45.4809783 32.498913,45.5054348 C32.4880435,45.5043478 32.4804348,45.4983696 32.4695652,45.4978261 C31.7255435,45.4641304 31.0663043,44.7880435 30.7853261,44.4994565 L30.7293478,44.4429348 C30.0418478,43.7336957 29.6744565,42.7766304 29.7217391,41.8168478 C29.763587,40.9679348 30.1347826,40.2059783 30.7668478,39.6728261 C31.4831522,39.0668478 32.4451087,39.0375 32.4527174,39.0375 C32.7619565,39.0326087 33.0103261,38.7809783 33.0103261,38.4722826 L33.0103261,30.2554348 C33.013587,30.1777174 32.9967391,30.1021739 32.9695652,30.0288043 C32.9652174,30.0195652 32.9630435,30.0119565 32.9586957,30.0027174 C32.9532609,29.9902174 32.95,29.976087 32.9440217,29.9646739 L30.3065217,25.0570652 C30.2076087,24.8733696 30.0163043,24.7586957 29.8065217,24.7586957 L19.5815217,24.7586957 L19.5804348,24.7586957 L9.46684783,24.7586957 C9.26413043,24.7586957 9.07717391,24.8673913 8.97608696,25.0418478 L6.14402174,29.9494565 C6.13532609,29.9641304 6.13206522,29.9804348 6.125,29.9961957 C6.11902174,30.0081522 6.11467391,30.0195652 6.10978261,30.0320652 C6.08423913,30.1 6.06847826,30.1701087 6.06956522,30.2418478 L6.06956522,38.3163043 C6.06956522,38.5896739 6.26521739,38.823913 6.53369565,38.8728261 C6.5451087,38.875 7.70706522,39.0929348 8.37228261,39.6304348 C9.2,40.3 9.4173913,41.1788043 9.45434783,41.7972826 C9.51576087,42.8342391 9.12119565,43.8972826 8.39728261,44.6413043 C8.15326087,44.8934783 7.35163043,45.4048913 6.6048913,45.4445652 C6.5923913,45.4451087 6.58206522,45.4521739 6.56956522,45.4538043 L6.56847826,45.4277174 C5.68206522,45.3940217 4.57880435,45.3521739 3.55054348,44.4548913 C3.51684783,44.426087 0.176086957,41.5222826 1.9951087,37.1086957 L6.02391304,26.2298913 C6.15869565,25.7820652 6.96956522,23.9032609 7.22608696,23.5472826 C9.33804348,20.1092391 12.9869565,18.0565217 16.9869565,18.0565217 L22.0961957,18.0565217 C27.2461957,18.0565217 31.7875,21.5375 33.1407609,26.5222826 C33.1461957,26.5396739 33.1516304,26.5565217 33.1576087,26.573913 L37.138587,37.1288043 C38.9445652,41.501087 35.7141304,44.35 35.5972826,44.4505435 L35.5972826,44.4505435 Z" id="Shape"></path>
                    </g>
                </g>
            </g>
        </g>
    </g>
</svg>
