<?xml version="1.0" encoding="UTF-8"?>
<svg width="100px" height="100px" viewBox="0 0 100 100" version="1.1" xmlns="http://www.w3.org/2000/svg" xmlns:xlink="http://www.w3.org/1999/xlink" xmlns:sketch="http://www.bohemiancoding.com/sketch/ns">
    <!-- Generator: Sketch 3.3.2 (12043) - http://www.bohemiancoding.com/sketch -->
    <title>Artboard 3</title>
    <desc>Created with Sketch.</desc>
    <defs></defs>
    <g id="Welcome" stroke="none" stroke-width="1" fill="none" fill-rule="evenodd" sketch:type="MSPage">
        <g id="Artboard-3" sketch:type="MSArtboardGroup" fill="#093765">
            <path d="M47.5196036,15.9984022 C47.5181585,15.998874 47.5167162,15.9993548 47.515277,15.9998445 C47.5128732,15.999821 47.5104691,15.999821 47.5080653,15.9998445 C47.464697,16.0029515 47.4222183,16.0136933 47.3825862,16.031575 L38.8470786,19.6820259 C38.665962,19.7106792 38.5333085,19.8678982 38.5355427,20.0512537 L38.5355427,31.1295284 C38.5351011,31.1821688 38.5459197,31.2342953 38.5672732,31.2824123 C38.567745,31.2838574 38.5682258,31.2852997 38.5687154,31.2867389 C38.5718742,31.293571 38.5752412,31.3003049 38.5788115,31.3069312 C38.6185671,31.3864087 38.6856508,31.4488836 38.7677523,31.4828911 L47.3090286,35.134784 C47.3820861,35.1873928 47.4718461,35.2114998 47.5614305,35.202572 C47.6261465,35.1991491 47.688822,35.1787547 47.74316,35.143438 L56.3046285,31.4828911 C56.4266979,31.4331526 56.5129979,31.3221167 56.5310685,31.1915476 C56.532216,31.1848446 56.5331781,31.1781113 56.5339537,31.1713552 C56.53457,31.1655983 56.5350509,31.1598276 56.5353959,31.154048 C56.5355546,31.147799 56.5355546,31.141547 56.5353959,31.1352979 C56.5354109,31.1333748 56.5354109,31.1314515 56.5353959,31.1295284 L56.5353959,20.0512537 C56.5373646,19.8702963 56.4079031,19.7145763 56.2296288,19.6834683 L47.6883525,16.031575 C47.6807773,16.0279482 47.6730806,16.0245809 47.6652758,16.0214789 C47.6643164,16.020994 47.663355,16.0205132 47.6623914,16.0200367 C47.6514737,16.01664 47.6404041,16.0137523 47.6292185,16.0113828 C47.6253881,16.0103594 47.6215415,16.0093978 47.6176801,16.0084983 C47.6095751,16.006297 47.6013974,16.0043728 47.5931612,16.0027291 C47.5893229,16.0021878 47.5854763,16.0017069 47.5816228,16.0012868 C47.5734681,16.0005342 47.5652906,16.0000532 47.5571039,15.9998445 C47.5446363,15.9987284 47.5321201,15.9982471 47.5196036,15.9984022 L47.5196036,15.9984022 Z M47.5354694,16.7700305 L49.3455508,17.5431011 L41.6739786,20.8243243 C41.6666602,20.8274556 41.6594449,20.8308227 41.6523441,20.8344204 L39.8408205,20.0599075 L47.5354694,16.7700305 L47.5354694,16.7700305 Z M50.2844852,17.9455017 L52.4811016,18.8844363 L44.6667425,22.2262361 C44.5184254,22.2897271 44.4284907,22.4421489 44.4446291,22.6026749 C44.4433026,22.6170573 44.442821,22.6315052 44.4431869,22.645944 L44.4431869,26.5963922 L43.6427122,25.3949598 C43.5394836,25.2404011 43.3374672,25.1866539 43.1710814,25.2694807 L42.2278202,25.7411108 L42.2278202,21.3911464 L50.2844852,17.9455017 L50.2844852,17.9455017 Z M53.4200367,19.2853946 L55.2315604,20.0599075 L47.5354694,23.3497844 L45.7253879,22.5767138 L53.3984022,19.2954907 C53.4057206,19.2923594 53.4129359,19.2889923 53.4200367,19.2853946 L53.4200367,19.2853946 Z M39.2739982,20.6195183 L41.4893647,21.567107 L41.4893647,26.3382215 C41.4892432,26.4663994 41.5556005,26.5854715 41.6646733,26.6527968 C41.7737461,26.7201222 41.9099302,26.726069 42.0244565,26.6685076 L43.2085816,26.0757235 L44.485013,27.9896503 C44.5255884,28.0675024 44.5925737,28.1283515 44.6739543,28.1612836 C44.6848226,28.1656537 44.6958928,28.1695041 44.7071272,28.1728219 C44.7076066,28.173304 44.7080873,28.1737847 44.7085694,28.1742641 C44.7321178,28.1809711 44.7562749,28.1853194 44.780684,28.1872447 C44.7931513,28.1883607 44.8056673,28.1888421 44.8181835,28.1886869 C44.8302189,28.1887941 44.8422524,28.1883128 44.8542408,28.1872447 C44.8668569,28.1854894 44.8793737,28.1830825 44.891741,28.1800337 C44.8990092,28.1783296 44.906224,28.1764056 44.9133756,28.1742641 C44.9177194,28.1733807 44.9220469,28.172419 44.9263561,28.1713797 C45.0969966,28.1176328 45.2045632,27.9492938 45.1816424,27.7718635 L45.1816424,23.1478633 L47.1662416,23.995933 L47.1662416,34.2708494 L39.2739982,30.8958766 L39.2739982,20.6195183 L39.2739982,20.6195183 Z M55.7969404,20.6209606 L55.7969404,30.8958766 L47.9046971,34.2722916 L47.9046971,23.995933 L55.7969404,20.6209606 L55.7969404,20.6209606 Z" id="Package" sketch:type="MSShapeGroup"></path>
            <path d="M89.0803295,40.865821 L76.9194397,40.865821 C76.1366825,40.865821 75.5,41.5025035 75.5,42.2852607 L75.5,49.2855376 C75.5,50.068064 76.1366825,50.7047465 76.9194397,50.7047465 L89.0805603,50.7047465 C89.8633175,50.7047465 90.5,50.068064 90.5,49.2855376 L90.5,42.2852607 C90.4997692,41.5025035 89.8630867,40.865821 89.0803295,40.865821 L89.0803295,40.865821 Z M89.8439332,42.2852607 L89.8439332,49.2855376 C89.8439332,49.431843 89.8005492,49.5673025 89.7290119,49.6833776 L84.2104814,46.0331261 L89.7463193,41.9188048 C89.8065491,42.0281877 89.8439332,42.1518781 89.8439332,42.2852607 L89.8439332,42.2852607 Z M89.0803295,41.521657 C89.1107906,41.521657 89.1394055,41.5271954 89.1689436,41.5306569 L83.3951862,45.8217447 C83.1247289,46.0227416 82.7478885,46.0211263 82.4788157,45.8178217 L76.817672,41.5318107 C76.8511331,41.5271954 76.8843633,41.5214263 76.9192089,41.5214263 L89.0803295,41.5214263 L89.0803295,41.521657 Z M76.2753727,49.691916 C76.2006046,49.5739947 76.1558361,49.4353045 76.1558361,49.2855376 L76.1558361,42.2852607 C76.1558361,42.1541858 76.1920663,42.0325723 76.25045,41.9248047 L81.7154428,46.0622026 L76.2753727,49.691916 L76.2753727,49.691916 Z M76.9219781,50.0489105 L82.2879725,46.4688117 C82.4915078,46.5735793 82.7155813,46.6266554 82.9398855,46.6266554 C83.1814972,46.6266554 83.421955,46.5625026 83.6379517,46.4406583 L89.0914063,50.0479874 C89.087714,50.0479874 89.0840218,50.0491412 89.0803295,50.0491412 L76.9219781,50.0491412 L76.9219781,50.0489105 Z" id="Envelop" sketch:type="MSShapeGroup" transform="translate(83.000000, 45.785284) rotate(-6.000000) translate(-83.000000, -45.785284) "></path>
            <g id="Folders" sketch:type="MSLayerGroup" transform="translate(17.000000, 80.000000) rotate(-24.000000) translate(-17.000000, -80.000000) translate(8.000000, 70.000000)">
                <path d="M4.2375,1 L1.5,1 C0.675,1 1.27897692e-13,1.675 1.27897692e-13,2.5 L1.27897692e-13,17.5 C1.27897692e-13,18.325 0.675,19 1.5,19 L4.275,19 C5.1,19 5.775,18.325 5.775,17.5 L5.775,2.5 C5.7375,1.675 5.0625,1 4.2375,1 L4.2375,1 Z M4.9875,17.5 C4.9875,17.9125 4.65,18.25 4.2375,18.25 L1.5,18.25 C1.0875,18.25 0.75,17.9125 0.75,17.5 L0.75,2.5 C0.75,2.0875 1.0875,1.75 1.5,1.75 L4.275,1.75 C4.6875,1.75 5.025,2.0875 5.025,2.5 L5.025,17.5 L4.9875,17.5 Z" id="Shape" sketch:type="MSShapeGroup"></path>
                <path d="M4.0875,2.95 L1.65,2.95 C1.4625,2.95 1.275,3.1 1.275,3.325 C1.275,3.5125 1.425,3.7 1.65,3.7 L4.0875,3.7 C4.275,3.7 4.4625,3.55 4.4625,3.325 C4.4625,3.1375 4.275,2.95 4.0875,2.95 L4.0875,2.95 Z" id="Shape" sketch:type="MSShapeGroup"></path>
                <path d="M4.0875,4.4125 L1.65,4.4125 C1.4625,4.4125 1.275,4.5625 1.275,4.7875 C1.275,4.975 1.425,5.1625 1.65,5.1625 L4.0875,5.1625 C4.275,5.1625 4.4625,5.0125 4.4625,4.7875 C4.4625,4.6 4.275,4.4125 4.0875,4.4125 L4.0875,4.4125 Z" id="Shape" sketch:type="MSShapeGroup"></path>
                <path d="M10.3875,1 L7.6125,1 C6.7875,1 6.1125,1.675 6.1125,2.5 L6.1125,17.5 C6.1125,18.325 6.7875,19 7.6125,19 L10.3875,19 C11.2125,19 11.8875,18.325 11.8875,17.5 L11.8875,2.5 C11.85,1.675 11.2125,1 10.3875,1 L10.3875,1 Z M11.1375,17.5 C11.1375,17.9125 10.8,18.25 10.3875,18.25 L7.6125,18.25 C7.2,18.25 6.8625,17.9125 6.8625,17.5 L6.8625,2.5 C6.8625,2.0875 7.2,1.75 7.6125,1.75 L10.3875,1.75 C10.8,1.75 11.1375,2.0875 11.1375,2.5 L11.1375,17.5 L11.1375,17.5 Z" id="Shape" sketch:type="MSShapeGroup"></path>
                <path d="M10.2,2.95 L7.7625,2.95 C7.575,2.95 7.3875,3.1 7.3875,3.325 C7.3875,3.5125 7.5375,3.7 7.7625,3.7 L10.2,3.7 C10.3875,3.7 10.575,3.55 10.575,3.325 C10.575,3.1375 10.425,2.95 10.2,2.95 L10.2,2.95 Z" id="Shape" sketch:type="MSShapeGroup"></path>
                <path d="M10.2,4.4125 L7.7625,4.4125 C7.575,4.4125 7.3875,4.5625 7.3875,4.7875 C7.3875,4.975 7.5375,5.1625 7.7625,5.1625 L10.2,5.1625 C10.3875,5.1625 10.575,5.0125 10.575,4.7875 C10.575,4.6 10.425,4.4125 10.2,4.4125 L10.2,4.4125 Z" id="Shape" sketch:type="MSShapeGroup"></path>
                <path d="M16.5,1 L13.725,1 C12.9,1 12.225,1.675 12.225,2.5 L12.225,17.5 C12.225,18.325 12.9,19 13.725,19 L16.5,19 C17.325,19 18,18.325 18,17.5 L18,2.5 C18,1.675 17.325,1 16.5,1 L16.5,1 Z M17.25,17.5 C17.25,17.9125 16.9125,18.25 16.5,18.25 L13.725,18.25 C13.3125,18.25 12.975,17.9125 12.975,17.5 L12.975,2.5 C12.975,2.0875 13.3125,1.75 13.725,1.75 L16.5,1.75 C16.9125,1.75 17.25,2.0875 17.25,2.5 L17.25,17.5 L17.25,17.5 Z" id="Shape" sketch:type="MSShapeGroup"></path>
                <path d="M16.35,2.95 L13.9125,2.95 C13.725,2.95 13.5375,3.1 13.5375,3.325 C13.5375,3.5125 13.6875,3.7 13.9125,3.7 L16.35,3.7 C16.5375,3.7 16.725,3.55 16.725,3.325 C16.725,3.1375 16.5375,2.95 16.35,2.95 L16.35,2.95 Z" id="Shape" sketch:type="MSShapeGroup"></path>
                <path d="M16.35,4.4125 L13.9125,4.4125 C13.725,4.4125 13.5375,4.5625 13.5375,4.7875 C13.5375,4.975 13.6875,5.1625 13.9125,5.1625 L16.35,5.1625 C16.5375,5.1625 16.725,5.0125 16.725,4.7875 C16.725,4.6 16.5375,4.4125 16.35,4.4125 L16.35,4.4125 Z" id="Shape" sketch:type="MSShapeGroup"></path>
                <path d="M15.15,13.45 C14.4375,13.45 13.8375,14.05 13.8375,14.7625 C13.8375,15.475 14.4375,16.075 15.15,16.075 C15.8625,16.075 16.4625,15.475 16.4625,14.7625 C16.4625,14.05 15.8625,13.45 15.15,13.45 L15.15,13.45 Z M15.15,15.3625 C14.8125,15.3625 14.55,15.1 14.55,14.7625 C14.55,14.425 14.8125,14.1625 15.15,14.1625 C15.4875,14.1625 15.75,14.425 15.75,14.7625 C15.7125,15.1 15.45,15.3625 15.15,15.3625 L15.15,15.3625 Z" id="Shape" sketch:type="MSShapeGroup"></path>
                <path d="M9,13.45 C8.2875,13.45 7.6875,14.05 7.6875,14.7625 C7.6875,15.475 8.2875,16.075 9,16.075 C9.7125,16.075 10.3125,15.475 10.3125,14.7625 C10.3125,14.05 9.7125,13.45 9,13.45 L9,13.45 Z M9,15.3625 C8.6625,15.3625 8.4,15.1 8.4,14.7625 C8.4,14.425 8.6625,14.1625 9,14.1625 C9.3375,14.1625 9.6,14.425 9.6,14.7625 C9.6,15.1 9.3375,15.3625 9,15.3625 L9,15.3625 Z" id="Shape" sketch:type="MSShapeGroup"></path>
                <path d="M2.85,13.45 C2.1375,13.45 1.5375,14.05 1.5375,14.7625 C1.5375,15.475 2.1375,16.075 2.85,16.075 C3.5625,16.075 4.1625,15.475 4.1625,14.7625 C4.2,14.05 3.6,13.45 2.85,13.45 L2.85,13.45 Z M2.85,15.3625 C2.5125,15.3625 2.25,15.1 2.25,14.7625 C2.25,14.425 2.5125,14.1625 2.85,14.1625 C3.1875,14.1625 3.45,14.425 3.45,14.7625 C3.45,15.1 3.1875,15.3625 2.85,15.3625 L2.85,15.3625 Z" id="Shape" sketch:type="MSShapeGroup"></path>
            </g>
            <g id="Documents" sketch:type="MSLayerGroup" transform="translate(52.000000, 59.000000) rotate(19.000000) translate(-52.000000, -59.000000) translate(44.000000, 50.000000)">
                <path d="M15.025,0.041 L2.431,0.041 C2.246,0.041 2.097,0.191 2.097,0.375 L2.097,1.496 L0.976,1.496 C0.791,1.496 0.642,1.645 0.642,1.829 L0.642,17.623 C0.642,17.808 0.791,17.957 0.976,17.957 L13.57,17.957 C13.754,17.957 13.903,17.807 13.903,17.623 L13.903,16.503 L15.025,16.503 C15.209,16.503 15.358,16.353 15.358,16.17 L15.358,0.376 C15.358,0.191 15.209,0.041 15.025,0.041 L15.025,0.041 Z M1.312,17.288 L1.312,2.166 L13.238,2.166 L13.238,17.289 L1.312,17.289 L1.312,17.288 Z M13.57,1.496 L2.767,1.496 L2.767,0.71 L14.69,0.71 L14.69,15.835 L13.903,15.835 L13.903,1.83 C13.903,1.646 13.754,1.496 13.57,1.496 L13.57,1.496 Z" id="Shape" sketch:type="MSShapeGroup"></path>
                <path d="M10.661,5.077 L3.888,5.077 C3.703,5.077 3.554,5.227 3.554,5.412 C3.554,5.596 3.703,5.745 3.888,5.745 L10.661,5.745 C10.846,5.745 10.995,5.595 10.995,5.412 C10.995,5.227 10.846,5.077 10.661,5.077 L10.661,5.077 Z" id="Shape" sketch:type="MSShapeGroup"></path>
                <path d="M10.661,7.954 L3.888,7.954 C3.703,7.954 3.554,8.105 3.554,8.29 C3.554,8.474 3.703,8.623 3.888,8.623 L10.661,8.623 C10.846,8.623 10.995,8.473 10.995,8.29 C10.995,8.105 10.846,7.954 10.661,7.954 L10.661,7.954 Z" id="Shape" sketch:type="MSShapeGroup"></path>
                <path d="M10.661,10.83 L3.888,10.83 C3.703,10.83 3.554,10.98 3.554,11.165 C3.554,11.35 3.703,11.5 3.888,11.5 L10.661,11.5 C10.846,11.5 10.995,11.35 10.995,11.165 C10.995,10.98 10.846,10.83 10.661,10.83 L10.661,10.83 Z" id="Shape" sketch:type="MSShapeGroup"></path>
                <path d="M10.661,13.379 L3.888,13.379 C3.703,13.379 3.554,13.529 3.554,13.714 C3.554,13.899 3.703,14.049 3.888,14.049 L10.661,14.049 C10.846,14.049 10.995,13.899 10.995,13.714 C10.995,13.529 10.846,13.379 10.661,13.379 L10.661,13.379 Z" id="Shape" sketch:type="MSShapeGroup"></path>
            </g>
            <g id="Pack" sketch:type="MSLayerGroup" transform="translate(74.000000, 74.636364)">
                <path d="M16.9683794,15.7272727 L0.640316206,15.7272727 L0.640316206,2.92094862 L16.9683794,2.92094862 L16.9683794,15.7272727 L16.9683794,15.7272727 Z M1.28063241,15.0869565 L16.3280632,15.0869565 L16.3280632,3.56126482 L1.28063241,3.56126482 L1.28063241,15.0869565 L1.28063241,15.0869565 Z" id="Shape" sketch:type="MSShapeGroup"></path>
                <path d="M11.2055336,7.40316206 L6.40316206,7.40316206 C5.69881423,7.40316206 5.12252964,6.82687747 5.12252964,6.12252964 C5.12252964,5.41818182 5.69881423,4.84189723 6.40316206,4.84189723 L11.2055336,4.84189723 C11.9098814,4.84189723 12.486166,5.41818182 12.486166,6.12252964 C12.486166,6.82687747 11.9098814,7.40316206 11.2055336,7.40316206 L11.2055336,7.40316206 Z M6.40316206,5.48221344 C6.05098814,5.48221344 5.76284585,5.77035573 5.76284585,6.12252964 C5.76284585,6.47470356 6.05098814,6.76284585 6.40316206,6.76284585 L11.2055336,6.76284585 C11.5577075,6.76284585 11.8458498,6.47470356 11.8458498,6.12252964 C11.8458498,5.77035573 11.5577075,5.48221344 11.2055336,5.48221344 L6.40316206,5.48221344 L6.40316206,5.48221344 Z" id="Shape" sketch:type="MSShapeGroup"></path>
                <path d="M17.6086957,3.56126482 L2.84217094e-14,3.56126482 L2.84217094e-14,1 L17.6086957,1 L17.6086957,3.56126482 L17.6086957,3.56126482 Z M0.640316206,2.92094862 L16.9683794,2.92094862 L16.9683794,1.64031621 L0.640316206,1.64031621 L0.640316206,2.92094862 L0.640316206,2.92094862 Z" id="Shape" sketch:type="MSShapeGroup"></path>
            </g>
            <g id="Contrat" sketch:type="MSLayerGroup" transform="translate(83.823340, 14.581993) rotate(15.000000) translate(-83.823340, -14.581993) translate(76.323340, 5.081993)">
                <path d="M6.17598307,14.6587917 C6.17598307,14.5494587 6.08645526,14.4608047 5.97625127,14.4608047 L1.88340342,14.4608047 C1.77319943,14.4608047 1.68367162,14.5494587 1.68367162,14.6587917 C1.68367162,14.7679201 1.77319943,14.856574 1.88340342,14.856574 L5.97625127,14.856574 C6.08645526,14.856574 6.17598307,14.7679201 6.17598307,14.6587917 Z M7.70442651,16.3077315 L5.65797842,16.3077315 C5.54757195,16.3077315 5.45825435,16.3964076 5.45825435,16.5055633 C5.45825435,16.6147189 5.54757195,16.703395 5.65797842,16.703395 L7.70442651,16.703395 C7.81462623,16.703395 7.90415058,16.6147189 7.90415058,16.5055633 C7.90415058,16.3964076 7.81462623,16.3077315 7.70442651,16.3077315 Z M1.88321696,4.85754474 L4.02064275,4.85754474 C4.13104953,4.85754474 4.22036738,4.76886912 4.22036738,4.65971414 C4.22036738,4.55055916 4.13084278,4.46188354 4.02064275,4.46188354 L1.88321696,4.46188354 C1.77301692,4.46188354 1.68349232,4.55055916 1.68349232,4.65971414 C1.68349232,4.76886912 1.77301692,4.85754474 1.88321696,4.85754474 Z M1.88306987,6.20810385 L10.7145538,6.20810385 C10.824968,6.20810385 10.9144987,6.11957008 10.9144987,6.01058971 C10.9144987,5.90160934 10.824968,5.81307556 10.7145538,5.81307556 L1.88306987,5.81307556 C1.77286242,5.81307556 1.68333178,5.90160934 1.68333178,6.01058971 C1.68333178,6.11957008 1.77286242,6.20810385 1.88306987,6.20810385 Z M1.88306987,7.55925874 L10.7145538,7.55925874 C10.824968,7.55925874 10.9144987,7.47072497 10.9144987,7.3617446 C10.9144987,7.25276423 10.824968,7.16423045 10.7145538,7.16423045 L1.88306987,7.16423045 C1.77286242,7.16423045 1.68333178,7.25276423 1.68333178,7.3617446 C1.68353855,7.47092943 1.77286242,7.55925874 1.88306987,7.55925874 Z M10.7319223,8.51333752 L1.90043841,8.51333752 C1.79002419,8.51333752 1.70070032,8.6018713 1.70070032,8.71085168 C1.70070032,8.81983205 1.79023096,8.90836583 1.90043841,8.90836583 L10.7319223,8.90836583 C10.8421298,8.90836583 10.9316604,8.82003652 10.9316604,8.71085168 C10.9316604,8.60166683 10.8421298,8.51333752 10.7319223,8.51333752 Z M1.88306987,10.2595207 L10.7145538,10.2595207 C10.824968,10.2595207 10.9144987,10.1711914 10.9144987,10.0620066 C10.9144987,9.95302618 10.824968,9.86449241 10.7145538,9.86449241 L1.88306987,9.86449241 C1.77286242,9.86449241 1.68333178,9.95302618 1.68333178,10.0620066 C1.68353855,10.1713959 1.77286242,10.2595207 1.88306987,10.2595207 Z M10.7319223,11.2138042 L1.90043849,11.2138042 C1.79002427,11.2138042 1.7007004,11.3023382 1.7007004,11.4113187 C1.7007004,11.5205038 1.79023104,11.6090377 1.90043849,11.6090377 L10.7319223,11.6090377 C10.8421297,11.6090377 10.9316603,11.5205038 10.9316603,11.4113187 C10.9316603,11.3021337 10.8421297,11.2138042 10.7319223,11.2138042 Z M10.7319223,12.5629113 L1.90043849,12.5629113 C1.79002427,12.5629113 1.7007004,12.6514452 1.7007004,12.7606303 C1.7007004,12.8696108 1.79023104,12.9581448 1.90043849,12.9581448 L10.7319223,12.9581448 C10.8421297,12.9581448 10.9316603,12.8696108 10.9316603,12.7606303 C10.9316603,12.6512408 10.8421297,12.5629113 10.7319223,12.5629113 Z" id="Shape" sketch:type="MSShapeGroup"></path>
                <path d="M14.8847684,13.3162188 C14.8881081,13.3104412 14.8912391,13.3048699 14.8939526,13.2986795 C14.8964574,13.2933145 14.8981273,13.2873305 14.9000059,13.2817592 C14.9023019,13.2753625 14.9043893,13.2687595 14.9058504,13.2621565 C14.9073115,13.2559661 14.9079377,13.2493631 14.9085639,13.2429664 C14.9093989,13.2367761 14.9104425,13.2303794 14.9106513,13.2239827 C14.91086,13.2165543 14.9098163,13.2091259 14.9091901,13.2014911 C14.9087727,13.1969515 14.9091901,13.1922056 14.9083552,13.1874597 C14.9010495,13.1433019 14.1700664,8.75558604 13.2658348,5.63276383 C13.2654174,5.63152576 13.2647912,5.63049404 13.2643737,5.62925597 L12.5669966,3.21976774 L12.5669966,2.77241221 C12.5669966,2.6673827 12.4843383,2.5821623 12.3799718,2.57452754 L12.1775007,1.87481233 L12.6976635,1.98334969 L13.1666866,5.04220501 C13.1817154,5.14104417 13.2677134,5.21161409 13.365818,5.21161409 C13.3758371,5.21161409 13.3860651,5.21099506 13.396293,5.2093443 C13.5062953,5.19283672 13.5820654,5.09110873 13.5653668,4.98236502 L13.0754703,1.78690944 C13.0627376,1.70478421 12.9999089,1.63896022 12.9176681,1.62162726 L12.0518434,1.44086921 L11.9268123,1.00940223 C11.912201,0.958641412 11.8775513,0.915515349 11.8307951,0.889928594 C11.7838302,0.864135494 11.7289334,0.85794515 11.677585,0.872595631 L11.6203922,0.88889687 L11.5101811,0.509016092 C11.4797061,0.40316121 11.3676165,0.342083149 11.2609539,0.37220949 L10.7587422,0.514381057 C10.6516621,0.544713743 10.5896684,0.655108211 10.6205609,0.760963094 L10.7303545,1.14063753 L10.6723267,1.15714511 C10.5652466,1.18727145 10.5032529,1.29787226 10.5341454,1.40372715 L10.8725017,2.57308313 L0.289109814,2.57308313 C0.177646365,2.57308313 0.087473687,2.66243043 0.087473687,2.77241221 L0.087473687,18.7480393 C0.087473687,18.8580211 0.177855098,18.9473684 0.289109814,18.9473684 L9.16631771,18.9473684 L9.16673518,18.9473684 C9.17967663,18.9473684 9.19220061,18.945924 9.20493333,18.9434479 C9.21015165,18.9424161 9.21536998,18.940559 9.22037957,18.9391146 C9.2274765,18.9372575 9.23436469,18.9354004 9.24146161,18.9329243 C9.2470974,18.9306545 9.25231573,18.9277657 9.25774279,18.9248768 C9.26358732,18.9217817 9.26964057,18.9190992 9.27527637,18.9155913 C9.28049469,18.9120835 9.28529555,18.9083693 9.29009641,18.9044487 C9.29406234,18.9013535 9.298237,18.8988774 9.30220293,18.8955759 L12.5010369,16.0197484 C12.5024981,16.0185103 12.5035417,16.0170659 12.5050029,16.0158278 C12.5077164,16.012939 12.5100124,16.0102565 12.512726,16.0073677 C12.5183618,16.0015901 12.5235801,15.9951934 12.528381,15.9887967 C12.530677,15.9854952 12.5329731,15.9824 12.5350604,15.9788921 C12.5396525,15.9716701 12.5440359,15.9640353 12.5477931,15.9561942 C12.5490455,15.9533054 12.5507154,15.9508292 12.5519678,15.9479404 C12.5563512,15.9372105 12.5596909,15.9264805 12.5621957,15.9151316 C12.5630306,15.9118301 12.5632394,15.9087349 12.5638656,15.9056397 C12.5653267,15.8965605 12.5663704,15.8874814 12.5665791,15.8781959 C12.5667878,15.8761324 12.567414,15.8742753 12.567414,15.8722119 L12.567414,8.19040763 C13.4589129,10.7680669 14.5100925,13.2642199 14.5234515,13.2962034 C14.5257475,13.3009493 14.5282523,13.3056952 14.5307571,13.3102348 C14.5326357,13.313949 14.5343056,13.3174569 14.5361842,13.3209647 C14.5476645,13.3399485 14.5618583,13.3564561 14.5781395,13.3702812 C14.5804356,13.3723446 14.5829404,13.3739954 14.5854452,13.3758525 C14.5914984,13.3803921 14.5977604,13.3849316 14.6042311,13.3888522 C14.6077796,13.391122 14.6111193,13.3929791 14.6148765,13.3946298 C14.6207211,13.3979314 14.626983,13.4006138 14.6330363,13.40309 C14.637211,13.4049471 14.6411769,13.4063915 14.6453516,13.4076296 C14.6518223,13.4098994 14.6585017,13.4115501 14.6651812,13.4129945 C14.6691471,13.4138199 14.6729043,13.4148516 14.677079,13.415677 C14.6873069,13.4173278 14.6977435,13.4183595 14.7079715,13.4183595 C14.7085977,13.4183595 14.7090151,13.4185658 14.7094326,13.4185658 L14.7096413,13.4185658 L14.7098501,13.4185658 C14.7102675,13.4185658 14.7108937,13.4183595 14.7113112,13.4183595 C14.7215391,13.4183595 14.7319758,13.4175341 14.7422037,13.4158834 C14.7432474,13.415677 14.744291,13.4152643 14.7453347,13.415058 C14.7520141,13.4138199 14.7586936,13.4115501 14.7655818,13.409693 C14.7720525,13.4078359 14.778732,13.4061852 14.7847852,13.4039154 C14.7858289,13.403709 14.7866638,13.4035027 14.7874988,13.40309 C14.7918822,13.4012329 14.7956394,13.3987567 14.8000227,13.3966933 C14.8069109,13.3929791 14.8140079,13.3898839 14.8206873,13.3855507 C14.8256969,13.3820428 14.8304978,13.3781223 14.8350899,13.3744081 C14.840517,13.3700748 14.8461527,13.3659479 14.8507449,13.3614083 C14.8555457,13.3568687 14.8595117,13.3519165 14.8638951,13.3469642 C14.8680697,13.3422183 14.8722444,13.337266 14.8760016,13.3321074 C14.8797588,13.3269487 14.8818461,13.3215838 14.8847684,13.3162188 L14.8847684,13.3162188 L14.8847684,13.3162188 Z M12.3165169,6.1083886 L12.9326969,5.93402724 C13.4317776,7.69910066 13.8736655,9.82527749 14.1621345,11.3299438 C13.6010601,9.90245044 12.8379321,7.86747802 12.3165169,6.1083886 L12.3165169,6.1083886 L12.3165169,6.1083886 Z M12.2044273,5.7252063 L10.9772857,1.48564603 L11.0323912,1.47017017 C11.0332261,1.46996383 11.0344785,1.46996383 11.0355222,1.46955114 L11.5379426,1.32737957 C11.5385688,1.32717323 11.5394038,1.32676054 11.54003,1.32655419 L11.5951355,1.31087199 L12.0267954,2.8023322 C12.0293002,2.8184271 12.0338924,2.83369661 12.0399456,2.84834709 L12.1672728,3.2886869 C12.1693601,3.29859145 12.1722824,3.30828965 12.1758308,3.31778152 L12.8220684,5.5506386 L12.2044273,5.7252063 L12.2044273,5.7252063 Z M11.0637011,0.843088324 L11.1782956,0.810692191 L11.2327749,0.998878648 L11.1181805,1.03127478 L11.0637011,0.843088324 L11.0637011,0.843088324 Z M9.36795384,18.2973823 L9.36795384,16.0719536 L11.8437366,16.0719536 L9.36795384,18.2973823 L9.36795384,18.2973823 Z M12.1637243,15.6730891 L9.16652645,15.6730891 C9.055063,15.6730891 8.96489032,15.7624364 8.96489032,15.8724182 L8.96489032,18.5487103 L0.490954673,18.5487103 L0.490954673,2.97194763 L10.9881398,2.97194763 L11.872333,6.02667605 C11.8727504,6.02812047 11.8735854,6.02935854 11.8740028,6.03059661 C11.9633406,6.33908208 12.0610277,6.65726576 12.1639331,6.98019538 L12.1639331,15.6730891 L12.1637243,15.6730891 L12.1637243,15.6730891 Z" id="Shape" stroke="#093765" stroke-width="0.2" sketch:type="MSShapeGroup"></path>
            </g>
            <g id="Large-envelope" sketch:type="MSLayerGroup" transform="translate(15.866166, 16.134752) rotate(-21.000000) translate(-15.866166, -16.134752) translate(8.866166, 6.634752)">
                <path d="M13.3244836,1 L0.476536308,1 L0.0751180527,1 L0.0751180527,18.8180737 L0.416402434,18.8180737 L13.726099,18.8180737 L13.726099,1 L13.3244836,1 L13.3244836,1 Z M12.4214897,1.68520392 L11.6943627,4.25753983 L2.10685436,4.25753983 L1.37972738,1.68520392 L12.4214897,1.68520392 L12.4214897,1.68520392 Z M0.757489655,18.1326718 L0.757489655,1.99405054 L1.59108316,4.94294174 L12.2101339,4.94294174 L12.2805201,4.69388466 L13.0437274,1.99385256 L13.0437274,18.1326718 L0.757489655,18.1326718 L0.757489655,18.1326718 Z" id="Shape" sketch:type="MSShapeGroup"></path>
                <path d="M6.90060852,3.91384899 C7.4189428,3.91365101 7.83869696,3.49215458 7.83889412,2.97147087 C7.83869696,2.45098514 7.4189428,2.02929073 6.90060852,2.02909275 C6.38207708,2.02929073 5.96232292,2.45078716 5.96212576,2.97147087 C5.96252008,3.4919566 6.38227424,3.91365101 6.90060852,3.91384899 L6.90060852,3.91384899 Z M6.90060852,2.71449465 C7.04177525,2.71469263 7.15632535,2.82971819 7.15652252,2.97147087 C7.15632535,3.11322354 7.04177525,3.22824911 6.90060852,3.22844709 C6.75944178,3.22824911 6.64489168,3.11322354 6.64469452,2.97147087 C6.64489168,2.82971819 6.75944178,2.71469263 6.90060852,2.71449465 L6.90060852,2.71449465 Z" id="Shape" sketch:type="MSShapeGroup"></path>
                <path d="M6.90060852,5.32266468 C6.38227424,5.32286266 5.96232292,5.7443591 5.96212576,6.26504281 C5.96232292,6.78552854 6.38207708,7.20722295 6.90060852,7.20742093 C7.4189428,7.20722295 7.83869696,6.78572652 7.83889412,6.26504281 C7.83889412,5.7443591 7.4189428,5.32286266 6.90060852,5.32266468 L6.90060852,5.32266468 Z M6.90060852,6.52182105 C6.75944178,6.52162307 6.64489168,6.4065975 6.64469452,6.26484483 C6.64489168,6.12309215 6.75944178,6.00806659 6.90060852,6.00786861 C7.04177525,6.00806659 7.15632535,6.12309215 7.15652252,6.26484483 C7.15632535,6.4065975 7.04177525,6.52162307 6.90060852,6.52182105 L6.90060852,6.52182105 Z" id="Shape" sketch:type="MSShapeGroup"></path>
            </g>
            <path d="M20.9906659,54.1496287 C20.6961625,54.1496287 20.431806,54.039598 20.1900869,53.9390359 C19.9594688,53.8430448 19.7407135,53.7490127 19.5161901,53.755978 C19.3066856,53.7591342 19.0928279,53.8225841 18.8663454,53.8897344 C18.4338412,54.018049 17.9434376,54.1633417 17.3456154,53.9284791 C16.5825839,53.628534 16.2281133,53.2744988 15.8408839,52.7260869 C14.5773273,50.9368647 14.5355352,48.2189665 15.7547966,47.1336792 C16.3173568,46.6328276 17.0710285,46.4165755 17.8219795,46.5398838 C18.2907252,46.6169379 18.9036753,46.7562447 19.3809101,46.9994875 C19.3231195,46.6923595 19.1615018,46.4007946 19.0279631,46.2827103 C18.4965293,45.8132027 18.1675257,45.7098109 17.94975,45.6414635 L17.8629009,45.6136021 C17.7631006,45.5802991 17.7091192,45.4724451 17.7424222,45.3727537 C17.7756164,45.2729534 17.8837969,45.2192985 17.9832707,45.252275 L18.0638074,45.2780685 C18.2972552,45.3513135 18.6878585,45.4740776 19.2800214,45.9972401 C19.3683942,46.0753825 19.4562228,46.188787 19.5331681,46.3238493 C19.6431987,46.0178096 19.8339838,45.7573711 20.1522129,45.4255379 C20.6802728,44.8749494 21.5782578,44.7786318 21.6161318,44.7748226 C21.6762079,44.7689456 21.7345426,44.7911476 21.7751375,44.8351163 C21.8157324,44.8790851 21.8333634,44.9395965 21.8225889,44.9983665 C21.8132292,45.0500624 21.6425784,45.9328107 20.8901038,46.7012838 C21.1531543,46.6377251 21.4156606,46.5916885 21.6482377,46.5804787 C22.2014382,46.5537056 22.7903361,46.7529797 23.262891,47.1263873 C24.4402515,48.0562605 24.3847464,50.9870369 23.1567784,52.7260869 C22.7115407,53.3565592 22.4306415,53.703085 21.3855137,54.0798664 C21.2481659,54.1294945 21.1165862,54.1496287 20.9906659,54.1496287 L20.9906659,54.1496287 Z M19.5290324,53.3749521 C19.8260389,53.3749521 20.0853891,53.4829149 20.3363591,53.587395 C20.6582885,53.7212601 20.9362492,53.837059 21.256546,53.7215866 C22.1977379,53.3822439 22.4240027,53.1038479 22.8458412,52.506461 C24.0431182,50.8108355 23.9616019,48.1636791 23.0269401,47.4253529 C22.6254534,47.1082121 22.1308053,46.9397379 21.6666306,46.9610693 C21.1078795,46.9878423 20.2894519,47.2561168 19.7945861,47.4597442 C19.7507262,47.4793343 19.7059956,47.4982713 19.6602856,47.5166641 C19.6060865,47.5385397 19.5474253,47.5336422 19.4993209,47.5078486 C19.4806015,47.5019716 19.4624263,47.4931561 19.4455571,47.4810756 C19.1073027,47.2395741 18.5087187,47.0388852 17.7600532,46.9156857 C17.1231598,46.8110968 16.4843073,46.9940458 16.0079432,47.4181699 C14.9390897,48.369592 15.0103757,50.8899575 16.1518211,52.506461 C16.5042238,53.0054624 16.8071074,53.3075841 17.4847046,53.5740085 C17.9605245,53.7609844 18.347754,53.6462739 18.7578385,53.5245981 C18.9990134,53.4530945 19.2483509,53.3790877 19.5102042,53.3750609 C19.5165166,53.3750609 19.5228289,53.3749521 19.5290324,53.3749521 L19.5290324,53.3749521 Z M21.3691887,45.2071091 C21.0980845,45.2727357 20.6935505,45.4114984 20.427235,45.6892414 C19.9622985,46.1740945 19.8204884,46.4448722 19.7877296,47.0407354 C20.7981395,46.5262796 21.2155158,45.651585 21.3691887,45.2071091 L21.3691887,45.2071091 Z" id="Apple" stroke="#093765" stroke-width="0.25" sketch:type="MSShapeGroup" transform="translate(19.489508, 49.461761) rotate(9.000000) translate(-19.489508, -49.461761) "></path>
            <path d="M58.5472441,85.9338583 L54.1925197,85.9338583 L54.1925197,85.0622047 C54.1925197,84.2614173 53.5405512,83.6094488 52.7397638,83.6094488 L49.2566929,83.6094488 C48.4559055,83.6094488 47.803937,84.2614173 47.803937,85.0622047 L47.803937,85.9338583 L43.4527559,85.9338583 C42.6519685,85.9338583 42,86.5858268 42,87.3866142 L42,96.096063 C42,96.8968504 42.6519685,97.5488189 43.4527559,97.5488189 L58.5472441,97.5488189 C59.3480315,97.5488189 60,96.8968504 60,96.096063 L60,87.3866142 C60,86.5858268 59.3480315,85.9338583 58.5472441,85.9338583 L58.5472441,85.9338583 Z M48.3885827,85.0622047 C48.3885827,84.580315 48.7783465,84.1905512 49.2602362,84.1905512 L52.7433071,84.1905512 C53.2251969,84.1905512 53.6149606,84.580315 53.6149606,85.0622047 L53.6149606,85.9338583 L48.3885827,85.9338583 L48.3885827,85.0622047 L48.3885827,85.0622047 Z M43.4527559,86.5149606 L58.5472441,86.5149606 C59.0291339,86.5149606 59.4188976,86.9047244 59.4188976,87.3866142 L59.4188976,91.1602362 L52.8956693,91.1602362 L52.3145669,90.2885827 L49.6818898,90.2885827 L49.1007874,91.1602362 L42.5811024,91.1602362 L42.5811024,87.3866142 C42.5811024,86.9047244 42.9708661,86.5149606 43.4527559,86.5149606 L43.4527559,86.5149606 Z M52.3925197,91.4507874 L52.0062992,92.0318898 L49.9937008,92.0318898 L49.6074803,91.4507874 L49.9937008,90.869685 L52.0062992,90.869685 L52.3925197,91.4507874 L52.3925197,91.4507874 Z M58.5472441,96.9677165 L43.4527559,96.9677165 C42.9708661,96.9677165 42.5811024,96.5779528 42.5811024,96.096063 L42.5811024,91.7413386 L49.1043307,91.7413386 L49.6854331,92.6129921 L52.3181102,92.6129921 L52.8992126,91.7413386 L59.4224409,91.7413386 L59.4224409,96.096063 C59.4188976,96.5744094 59.0291339,96.9677165 58.5472441,96.9677165 L58.5472441,96.9677165 Z" id="Satchel" stroke="#093765" stroke-width="0.1" sketch:type="MSShapeGroup" transform="translate(51.000000, 90.579134) rotate(8.000000) translate(-51.000000, -90.579134) "></path>
        </g>
    </g>
</svg>