<?xml version="1.0" encoding="UTF-8"?>
<svg width="25px" height="25px" viewBox="0 0 25 25" version="1.1" xmlns="http://www.w3.org/2000/svg" xmlns:xlink="http://www.w3.org/1999/xlink">
    <!-- Generator: Sketch 43.2 (39069) - http://www.bohemiancoding.com/sketch -->
    <title>Temps</title>
    <desc>Created with Sketch.</desc>
    <defs></defs>
    <g id="Welcome" stroke="none" stroke-width="1" fill="none" fill-rule="evenodd">
        <g id="1.1.1.-Récapitulatif-commande" transform="translate(-276.000000, -607.000000)" fill-rule="nonzero" fill="#0182FF">
            <g id="Group-2" transform="translate(276.000000, 586.000000)">
                <g id="Temps">
                    <g id="7-Min" transform="translate(0.000000, 19.000000)">
                        <path d="M12.5,2 C5.59646552,2 0,7.59648276 0,14.5000172 C0,21.4034655 5.59646552,27.0000172 12.5,27.0000172 C19.4035345,27.0000172 25,21.4034655 25,14.5000172 C25,7.59648276 19.4035345,2.00000431 12.5,2.00000431 L12.5,2 Z M12.5453721,6.74137931 C13.4528131,6.74137931 12.7253759,6.74137931 13.4528131,6.74137931 L13.4528131,14.4179016 L20.2586207,14.4179016 C20.2586207,15.3210198 20.2586207,14.8222276 20.2586207,15.3210198 C20.2586207,15.8198119 20.2586207,15.3210198 20.2586207,16.2241379 L12.5453721,16.2241379 C12.0441924,16.2241379 11.637931,15.8198119 11.637931,15.3210198 L11.637931,6.74137931 C12.5453721,6.74137931 11.637931,6.74137931 12.5453721,6.74137931 Z" id="Temps"></path>
                    </g>
                </g>
            </g>
        </g>
    </g>
</svg>