<?xml version="1.0" encoding="UTF-8"?>
<svg width="25px" height="25px" viewBox="0 0 25 25" version="1.1" xmlns="http://www.w3.org/2000/svg" xmlns:xlink="http://www.w3.org/1999/xlink">
    <!-- Generator: Sketch 43.2 (39069) - http://www.bohemiancoding.com/sketch -->
    <title>Euro</title>
    <desc>Created with Sketch.</desc>
    <defs></defs>
    <g id="Welcome" stroke="none" stroke-width="1" fill="none" fill-rule="evenodd">
        <g id="1.1.1.-Récapitulatif-commande" transform="translate(-464.000000, -608.000000)">
            <g id="Group-2" transform="translate(276.000000, 586.000000)">
                <g id="Prix" transform="translate(188.000000, 0.000000)">
                    <g id="19€" transform="translate(0.000000, 19.000000)">
                        <g id="Euro" transform="translate(0.000000, 3.000000)">
                            <circle id="Oval" fill="#0182FF" cx="12.5" cy="12.5" r="12.5"></circle>
                            <path d="M6.97777778,11.7833333 L6.97777778,10.35 L8.71111111,10.35 C9.07777961,9.16110517 9.72777311,8.20555917 10.6611111,7.48333333 C11.5944491,6.7611075 12.6555496,6.4 13.8444444,6.4 C15.6111199,6.4 17.0111059,7.0388825 18.0444444,8.31666667 L16.8611111,9.81666667 C16.3722198,9.29444183 15.9083355,8.92777883 15.4694444,8.71666667 C15.0305534,8.5055545 14.4888921,8.4 13.8444444,8.4 C13.1999968,8.4 12.619447,8.56944275 12.1027778,8.90833333 C11.5861085,9.24722392 11.2000013,9.72777467 10.9444444,10.35 L14.9111111,10.35 L14.9111111,11.7833333 L10.5944444,11.7833333 C10.5833333,11.9166673 10.5777778,12.1194431 10.5777778,12.3916667 C10.5777778,12.6638902 10.5944443,12.922221 10.6277778,13.1666667 L14.9111111,13.1666667 L14.9111111,14.6 L11.0777778,14.6 C11.6777808,15.7555613 12.5833273,16.3333333 13.7944444,16.3333333 C14.3944474,16.3333333 14.9083312,16.2194456 15.3361111,15.9916667 C15.763891,15.7638877 16.2166643,15.405558 16.6944444,14.9166667 L17.8777778,16.35 C16.8444393,17.6277842 15.4833418,18.2666667 13.7944444,18.2666667 C12.6388831,18.2666667 11.6138934,17.9361144 10.7194444,17.275 C9.82499553,16.6138856 9.18333528,15.7222278 8.79444444,14.6 L6.97777778,14.6 L6.97777778,13.1666667 L8.47777778,13.1666667 C8.44444428,12.8999987 8.42777778,12.6333347 8.42777778,12.3666667 C8.42777778,12.0999987 8.43333328,11.9055562 8.44444444,11.7833333 L6.97777778,11.7833333 Z" id="€" fill="#FFFFFF"></path>
                        </g>
                    </g>
                </g>
            </g>
        </g>
    </g>
</svg>