<?xml version="1.0" encoding="UTF-8"?>
<svg width="13px" height="13px" viewBox="0 0 13 13" version="1.1" xmlns="http://www.w3.org/2000/svg" xmlns:xlink="http://www.w3.org/1999/xlink">
    <!-- Generator: Sketch 43.2 (39069) - http://www.bohemiancoding.com/sketch -->
    <title>user</title>
    <desc>Created with Sketch.</desc>
    <defs></defs>
    <g id="Welcome" stroke="none" stroke-width="1" fill="none" fill-rule="evenodd">
        <g id="1.1.-Mon-compte---Accueil---Simple" transform="translate(-756.000000, -270.000000)" fill-rule="nonzero" fill="#F24440">
            <g id="Board" transform="translate(216.000000, 88.000000)">
                <g id="Cards-étapes-course" transform="translate(65.000000, 89.000000)">
                    <g id="Livraison" transform="translate(462.000000, 0.000000)">
                        <g id="Adresse-+-contact" transform="translate(0.000000, 26.000000)">
                            <g id="Contact" transform="translate(1.000000, 55.000000)">
                                <g id="user" transform="translate(12.800000, 12.461538)">
                                    <ellipse id="Oval" cx="6" cy="5.1476" rx="2.4" ry="2.4476"></ellipse>
                                    <path d="M6,0 C2.68626667,0 0,2.68626667 0,6 C0,9.31373333 2.68626667,12 6,12 C9.31373333,12 12,9.31373333 12,6 C12,2.68626667 9.31373333,0 6,0 Z M9.68253333,9.6676 C8.89666667,8.90426667 7.54106667,8.4 6,8.4 C4.45893333,8.4 3.10333333,8.90426667 2.31746667,9.6676 C1.38026667,8.72653333 0.8,7.42986667 0.8,6 C0.8,3.13266667 3.13266667,0.8 6,0.8 C8.86733333,0.8 11.2,3.13266667 11.2,6 C11.2,7.42986667 10.6197333,8.72653333 9.68253333,9.6676 Z" id="Shape"></path>
                                </g>
                            </g>
                        </g>
                    </g>
                </g>
            </g>
        </g>
    </g>
</svg>