<?xml version="1.0" encoding="UTF-8"?>
<svg width="12px" height="17px" viewBox="0 0 12 17" version="1.1" xmlns="http://www.w3.org/2000/svg" xmlns:xlink="http://www.w3.org/1999/xlink">
    <!-- Generator: Sketch 43.2 (39069) - http://www.bohemiancoding.com/sketch -->
    <title>Shape</title>
    <desc>Created with Sketch.</desc>
    <defs></defs>
    <g id="Welcome" stroke="none" stroke-width="1" fill="none" fill-rule="evenodd">
        <g id="3.2.-Historique---Courses-en-cours---Courses" transform="translate(-308.000000, -345.000000)" fill-rule="nonzero" fill="#4990E2">
            <g id="Course-2" transform="translate(307.000000, 295.000000)">
                <path d="M7,50 C4.54384968,50 2.5483871,51.9954626 2.5483871,54.4516129 L2.5483871,56.5806452 L2.35483871,56.5806452 C1.61430129,56.5806452 1,57.1949465 1,57.9354877 L1,64.9032297 C1,65.6437652 1.61430129,66.2580684 2.35483871,66.2580684 L11.6451613,66.2580684 C12.3856987,66.2580684 13,65.6437652 13,64.9032297 L13,57.9354877 C13,57.1949465 12.3856987,56.5806452 11.6451613,56.5806452 L11.4516129,56.5806452 L11.4516129,54.4516129 C11.4516129,51.9954626 9.45615032,50 7,50 L7,50 Z M7,51.1612903 C8.83288194,51.1612903 10.2903226,52.618731 10.2903226,54.4516129 L10.2903226,56.5806452 L3.70967742,56.5806452 L3.70967742,54.4516129 C3.70967742,52.618731 5.16711806,51.1612903 7,51.1612903 Z M2.35483871,57.7419394 L11.6451613,57.7419394 C11.7624303,57.7419394 11.8387097,57.8182168 11.8387097,57.9354877 L11.8387097,64.9032297 C11.8387097,65.0205006 11.7624303,65.0967781 11.6451613,65.0967781 L2.35483871,65.0967781 C2.23756968,65.0967781 2.16129032,65.0205006 2.16129032,64.9032297 L2.16129032,57.9354877 C2.16129032,57.8182168 2.23756968,57.7419394 2.35483871,57.7419394 L2.35483871,57.7419394 Z M7,58.9032297 C6.0448329,58.9032297 5.25806452,59.6900039 5.25806452,60.6451652 C5.25806452,61.0411458 5.42012258,61.3854684 5.64516129,61.6794297 L5.64516129,62.580649 C5.64516129,63.3211845 6.25946258,63.9354877 7,63.9354877 C7.74053742,63.9354877 8.35483871,63.3211845 8.35483871,62.580649 L8.35483871,61.6794297 C8.57987742,61.3854684 8.74193548,61.0411458 8.74193548,60.6451652 C8.74193548,59.6900039 7.9551671,58.9032297 7,58.9032297 L7,58.9032297 Z M7,60.06452 C7.32755935,60.06452 7.58064516,60.3176039 7.58064516,60.6451652 C7.58064516,60.8204039 7.50694774,60.967249 7.38709677,61.074591 C7.263245,61.1853742 7.19278577,61.3439074 7.19354839,61.5100748 L7.19354839,62.580649 C7.19354839,62.69792 7.11726903,62.7741974 7,62.7741974 C6.88273097,62.7741974 6.80645161,62.69792 6.80645161,62.580649 L6.80645161,61.5100748 C6.80721423,61.3439074 6.736755,61.1853742 6.61290323,61.074591 C6.49305226,60.967249 6.41935484,60.8204039 6.41935484,60.6451652 C6.41935484,60.3176039 6.67244065,60.06452 7,60.06452 L7,60.06452 Z" id="Shape"></path>
            </g>
        </g>
    </g>
</svg>