<?xml version="1.0" encoding="UTF-8"?>
<svg width="13px" height="12px" viewBox="0 0 13 12" version="1.1" xmlns="http://www.w3.org/2000/svg" xmlns:xlink="http://www.w3.org/1999/xlink">
    <!-- Generator: Sketch 43.2 (39069) - http://www.bohemiancoding.com/sketch -->
    <title>Icon tel expé</title>
    <desc>Created with Sketch.</desc>
    <defs></defs>
    <g id="Welcome" stroke="none" stroke-width="1" fill="none" fill-rule="evenodd">
        <g id="1.1.-Mon-compte---Accueil---Simple" transform="translate(-294.000000, -306.000000)">
            <g id="Board" transform="translate(216.000000, 88.000000)">
                <g id="Cards-étapes-course" transform="translate(65.000000, 89.000000)">
                    <g id="Retrait">
                        <g id="Adresse-+-contact" transform="translate(0.000000, 26.000000)">
                            <g id="Contacts" transform="translate(1.000000, 55.000000)">
                                <g id="Tel-expé" transform="translate(12.384615, 10.000000)">
                                    <g id="Icon-tel-expé" transform="translate(-0.000000, 38.000000)">
                                        <path d="M5.98876923,0.0735384615 C2.71538462,0.0735384615 0.0621538462,2.72692308 0.0621538462,6.00015385 C0.0621538462,9.27338462 2.71553846,11.9269231 5.98876923,11.9269231 C9.26169231,11.9269231 11.9153846,9.27338462 11.9153846,6.00015385 C11.9153846,2.72692308 9.26169231,0.0735384615 5.98876923,0.0735384615 Z" id="Shape" fill="#0182FF"></path>
                                        <path d="M7.73446154,6.622 C7.62507692,6.622 7.53569231,6.66461538 7.44876923,6.70615385 C7.33446154,6.76107692 7.21507692,6.81769231 7.01707692,6.79784615 C6.72753846,6.66892308 5.33415385,5.26307692 5.20923077,4.97276923 C5.198,4.78707692 5.25323077,4.674 5.30630769,4.56523077 C5.37323077,4.42876923 5.48476923,4.2 5.24630769,3.96138462 L5.14723077,3.86230769 C4.49092308,3.20523077 4.31415385,3.02815385 3.92492308,3.02815385 L3.92415385,3.02815385 C3.53923077,3.03384615 3.01261538,3.65984615 3.01630769,3.932 C3.02476923,4.64738462 3.55461538,5.88953846 4.71938462,7.05446154 C5.90907692,8.244 7.35061538,8.96430769 8.05630769,8.97276923 L8.05984615,8.97276923 L8.06030769,8.97276923 C8.35138462,8.97276923 8.93753846,8.45446154 8.95892308,8.10553846 C8.98338462,7.69892308 8.80553846,7.51984615 8.05384615,6.76846154 C7.95523077,6.66953846 7.85046154,6.622 7.73446154,6.622 Z" id="Shape" fill="#FFFFFF" fill-rule="nonzero"></path>
                                    </g>
                                </g>
                            </g>
                        </g>
                    </g>
                </g>
            </g>
        </g>
    </g>
</svg>