<?xml version="1.0" encoding="UTF-8"?>
<svg width="18px" height="16px" viewBox="0 0 18 16" version="1.1" xmlns="http://www.w3.org/2000/svg" xmlns:xlink="http://www.w3.org/1999/xlink">
    <!-- Generator: Sketch 43.2 (39069) - http://www.bohemiancoding.com/sketch -->
    <title>Shape Copy</title>
    <desc>Created with Sketch.</desc>
    <defs></defs>
    <g id="Welcome" stroke="none" stroke-width="1" fill="none" fill-rule="evenodd">
        <g id="1.1.1.-Récapitulatif-commande" transform="translate(-560.000000, -279.000000)" fill-rule="nonzero" fill="#1785FB">
            <path d="M574.791489,279.001743 C574.728951,279.004379 574.666199,279.00855 574.604404,279.017334 C573.862867,279.122737 573.210708,279.661185 573.006389,280.428265 L570.53531,289.704552 C570.510996,289.796913 570.513702,289.894311 570.543105,289.98518 L571.244673,292.206811 L571.041998,292.807042 C570.953742,293.069657 571.095088,293.354095 571.357704,293.442351 C571.620319,293.530607 571.904757,293.38926 571.993013,293.126645 L572.195688,292.510824 L574.082126,290.95958 C574.162198,290.893015 574.219438,290.803066 574.245825,290.702338 L576.38171,282.696668 L576.98194,282.860367 L576.023131,286.609858 C575.954248,286.876779 576.114789,287.149001 576.38171,287.217884 C576.648631,287.286766 576.920853,287.126225 576.989736,286.859305 L577.971931,283.031862 C578.09334,282.559732 577.80999,282.053585 577.332724,281.924943 L576.631156,281.737858 L576.716904,281.42605 C576.98933,280.403273 576.381234,279.339232 575.360539,279.064105 C575.169159,279.012518 574.979105,278.993836 574.791489,279.001743 Z M574.729128,279.999529 C574.847922,279.983839 574.978055,279.99696 575.103297,280.03071 C575.604263,280.165743 575.885601,280.660844 575.750299,281.168809 L575.672347,281.472822 L573.887246,280.997314 L573.972993,280.685506 C574.074469,280.304535 574.372746,280.046565 574.729128,279.999529 Z M573.630005,281.963919 L575.415105,282.439426 L575.243611,283.078633 L573.45851,282.59533 L573.630005,281.963919 Z M573.209064,283.55414 L574.986369,284.037442 L573.520872,289.572034 L571.735771,289.088732 L573.209064,283.55414 Z M571.626638,290.086517 L573.092136,290.484072 L572.024193,291.36493 L571.626638,290.086517 Z M562.786882,291.474063 C562.010642,291.474063 561.24543,291.880947 560.261237,292.557595 C560.093542,292.648465 559.992325,292.826986 560.000456,293.017545 C560.008587,293.208103 560.124644,293.377354 560.29947,293.453607 C560.474296,293.529861 560.677298,293.499774 560.822492,293.376091 C561.749816,292.738556 562.400495,292.471848 562.786882,292.471848 C563.482196,292.471848 563.775826,292.811744 564.260175,293.31373 C564.744523,293.815716 565.417675,294.467419 566.528578,294.467419 C567.609908,294.467419 568.75927,293.989592 570.200117,293.430658 C570.38049,293.377473 570.515638,293.227389 570.549696,293.042448 C570.583753,292.857507 570.510934,292.669126 570.361339,292.555176 C570.211743,292.441226 570.010787,292.421066 569.841538,292.503029 C568.40024,293.062163 567.293802,293.469634 566.528578,293.469634 C565.773338,293.469634 565.455702,293.115732 564.977333,292.619957 C564.498964,292.124157 563.857946,291.474063 562.786882,291.474063 Z" id="Shape-Copy"></path>
        </g>
    </g>
</svg>