<?xml version="1.0" encoding="UTF-8"?>
<svg width="40px" height="40px" viewBox="0 0 40 40" version="1.1" xmlns="http://www.w3.org/2000/svg" xmlns:xlink="http://www.w3.org/1999/xlink">
    <!-- Generator: Sketch 44.1 (41455) - http://www.bohemiancoding.com/sketch -->
    <title>burger</title>
    <desc>Created with Sketch.</desc>
    <defs></defs>
    <g id="Welcome" stroke="none" stroke-width="1" fill="none" fill-rule="evenodd">
        <g id="Artboard" transform="translate(-994.000000, -513.000000)" fill-rule="nonzero" fill="#000000">
            <path d="M1031.5,536.333333 L996.5,536.333333 C995.1,536.333333 994,534.866667 994,533 C994,531.133333 995.1,529.666667 996.5,529.666667 L1031.5,529.666667 C1032.9,529.666667 1034,531.133333 1034,533 C1034,534.866667 1032.9,536.333333 1031.5,536.333333 Z M1031.5,519.666667 L996.5,519.666667 C995.1,519.666667 994,518.2 994,516.333333 C994,514.466667 995.1,513 996.5,513 L1031.5,513 C1032.9,513 1034,514.466667 1034,516.333333 C1034,518.2 1032.9,519.666667 1031.5,519.666667 Z M996.5,546.333333 L1031.5,546.333333 C1032.9,546.333333 1034,547.8 1034,549.666667 C1034,551.533333 1032.9,553 1031.5,553 L996.5,553 C995.1,553 994,551.533333 994,549.666667 C994,547.8 995.1,546.333333 996.5,546.333333 Z" id="burger"></path>
        </g>
    </g>
</svg>