<?xml version="1.0" encoding="UTF-8"?>
<svg width="51px" height="51px" viewBox="0 0 51 51" version="1.1" xmlns="http://www.w3.org/2000/svg" xmlns:xlink="http://www.w3.org/1999/xlink">
    <!-- Generator: Sketch 44.1 (41455) - http://www.bohemiancoding.com/sketch -->
    <title>Shape</title>
    <desc>Created with Sketch.</desc>
    <defs></defs>
    <g id="Welcome" stroke="none" stroke-width="1" fill="none" fill-rule="evenodd">
        <g id="Artboard" transform="translate(-881.000000, -484.000000)" fill-rule="nonzero" fill="#000000">
            <path d="M929.498057,485.903953 C927.227551,483.633449 923.546137,483.633381 921.275563,485.903953 L906.200988,500.978484 L891.126413,485.903953 C888.855839,483.633381 885.174561,483.633313 882.903919,485.903953 C880.633413,488.174457 880.633345,491.855867 882.903919,494.126439 L897.978494,509.201009 L882.903919,524.275618 C880.633345,526.546151 880.633413,530.227591 882.903919,532.498026 C885.174561,534.768656 888.855839,534.768656 891.126413,532.498026 L906.200979,517.423514 L921.275563,532.498026 C923.546137,534.768656 927.227551,534.768559 929.498057,532.498026 C931.768689,530.227397 931.768641,526.546151 929.498067,524.275618 L914.423492,509.201009 L929.498057,494.126439 C931.768631,491.855877 931.768699,488.174592 929.498057,485.903953 Z" id="Shape"></path>
        </g>
    </g>
</svg>