<?xml version="1.0" encoding="UTF-8"?>
<svg width="15px" height="15px" viewBox="0 0 15 15" version="1.1" xmlns="http://www.w3.org/2000/svg" xmlns:xlink="http://www.w3.org/1999/xlink">
    <!-- Generator: Sketch 44 (41411) - http://www.bohemiancoding.com/sketch -->
    <title>Télécharger</title>
    <desc>Created with Sketch.</desc>
    <defs></defs>
    <g id="Welcome" stroke="none" stroke-width="1" fill="none" fill-rule="evenodd">
        <g id="2.1.-Portemonnaie---Courses-prépayés" transform="translate(-956.000000, -191.000000)" fill-rule="nonzero" fill="#1785FB">
            <g id="Group-3" transform="translate(788.000000, 170.000000)">
                <g id="Télécharger" transform="translate(168.000000, 21.000000)">
                    <path d="M7.02352941,10.0588235 L7.02352941,10.0588235 C7.07647059,10.0941176 7.11176471,10.1117647 7.16470588,10.1294118 C7.23529412,10.1470588 7.28823529,10.1647059 7.35882353,10.1823529 L7.37647059,10.1823529 L7.5,10.1823529 L7.5,10.1647059 C7.53529412,10.1647059 7.58823529,10.1470588 7.62352941,10.1294118 C7.67647059,10.1117647 7.72941176,10.0764706 7.76470588,10.0411765 L7.81764706,9.98823529 L11.2235294,6.58235294 C11.3470588,6.45882353 11.4,6.31764706 11.4,6.14117647 C11.4,5.96470588 11.3294118,5.82352941 11.2235294,5.7 C10.9941176,5.47058824 10.5882353,5.47058824 10.3588235,5.7 L8.02941176,8.08235294 L8.02941176,0.652941176 C8.02941176,0.317647059 7.74705882,0.0352941176 7.41176471,0.0352941176 C7.07647059,0.0352941176 6.79411765,0.317647059 6.79411765,0.652941176 L6.79411765,8.08235294 L4.44705882,5.73529412 C4.21764706,5.50588235 3.81176471,5.50588235 3.58235294,5.73529412 C3.45882353,5.85882353 3.40588235,6 3.40588235,6.17647059 C3.40588235,6.35294118 3.47647059,6.49411765 3.58235294,6.61764706 L7.02352941,10.0588235 Z" id="Shape"></path>
                    <path d="M14.2058824,8.1 C13.8705882,8.1 13.5882353,8.38235294 13.5882353,8.71764706 L13.5882353,11.1705882 C13.5882353,12.2823529 12.6705882,13.2 11.5588235,13.2 L3.26470588,13.2 C2.15294118,13.2 1.23529412,12.2823529 1.23529412,11.1705882 L1.23529412,8.71764706 C1.23529412,8.38235294 0.952941176,8.1 0.617647059,8.1 C0.282352941,8.1 0,8.38235294 0,8.71764706 L0,11.1705882 C0,12.9705882 1.46470588,14.4352941 3.26470588,14.4352941 L11.5764706,14.4352941 C13.3764706,14.4352941 14.8411765,12.9705882 14.8411765,11.1705882 L14.8411765,8.71764706 C14.8235294,8.38235294 14.5588235,8.1 14.2058824,8.1 Z" id="Shape"></path>
                </g>
            </g>
        </g>
    </g>
</svg>