<?xml version="1.0" encoding="UTF-8"?>
<svg width="16px" height="22px" viewBox="0 0 16 22" version="1.1" xmlns="http://www.w3.org/2000/svg" xmlns:xlink="http://www.w3.org/1999/xlink">
    <!-- Generator: Sketch 43.2 (39069) - http://www.bohemiancoding.com/sketch -->
    <title>Notification</title>
    <desc>Created with Sketch.</desc>
    <defs></defs>
    <g id="Welcome" stroke="none" stroke-width="1" fill="none" fill-rule="evenodd">
        <g id="1.1.-Mon-compte---Accueil---Simple" transform="translate(-1081.000000, -38.000000)" fill-rule="nonzero" fill="#121435">
            <g id="Top-menu" transform="translate(1015.000000, 38.000000)">
                <g id="Notification" transform="translate(66.000000, 0.000000)">
                    <path d="M8,21.2 C9.1,21.2 10,20.3 10,19.2 L6,19.2 C6,20.4 6.9,21.2 8,21.2 Z" id="Shape"></path>
                    <path d="M1.6,18.2 L14.4,18.2 C14.9,18.2 15.4,17.9 15.7,17.5 C16,17.1 16,16.5 15.8,16 L14.6,13.5 L14.6,8.6 C14.6,5.4 12.2,2.7 9.1,2.2 L9.1,1.8 C9.1,1.2 8.7,0.8 8.1,0.8 C7.5,0.8 7.1,1.2 7.1,1.8 L7.1,2.4 C4,2.9 1.6,5.6 1.6,8.8 L1.6,13.7 L0.4,16.1 C0.2,16.6 0.2,17.1 0.5,17.6 C0.6,18 1.1,18.2 1.6,18.2 Z" id="Shape"></path>
                </g>
            </g>
        </g>
    </g>
</svg>