<?xml version="1.0" encoding="UTF-8"?>
<svg width="935px" height="587px" viewBox="0 0 935 587" version="1.1" xmlns="http://www.w3.org/2000/svg" xmlns:xlink="http://www.w3.org/1999/xlink">
    <!-- Generator: Sketch 44.1 (41455) - http://www.bohemiancoding.com/sketch -->
    <title>Group</title>
    <desc>Created with Sketch.</desc>
    <defs></defs>
    <g id="Welcome" stroke="none" stroke-width="1" fill="none" fill-rule="evenodd">
        <g id="Artboard" transform="translate(-241.000000, -513.000000)">
            <g id="Group" transform="translate(288.000000, 40.000000)">
                <g id="europe-map" fill="#D9E2E8">
                    <path d="M84.0022004,1059.65909 C78.5681997,1059.65909 73.4810501,1057.02391 70.7190875,1052.7913 L67.7130446,1048.16225 C66.9165716,1046.93794 65.4263965,1046.15672 63.8334507,1046.15672 L38.9372487,1046.15672 C30.4329734,1046.15672 23.5087975,1039.8836 23.5087975,1032.16462 L23.5087975,915.400593 C23.5087975,907.681621 30.4329734,901.408498 38.9372487,901.408498 L156.442697,901.408498 C158.266877,901.408498 159.898362,900.417391 160.592064,898.901581 L177.741925,862.090711 C178.255778,860.971344 178.217239,859.735375 177.626308,858.662648 L147.951268,804.933004 C147.540185,804.198419 146.910715,803.592095 146.114242,803.207312 L134.681002,797.470553 C128.643223,794.438933 125.650026,788.515613 127.050277,782.382411 C128.450528,776.249209 133.794604,771.9 140.667395,771.293676 L152.935647,770.209289 C154.836905,770.034387 156.429851,768.775099 156.892319,767.072727 C159.06335,758.747431 167.156543,754.16502 175.262581,755.65751 L183.79255,757.266601 C186.233354,757.336561 187.376678,756.788538 188.237382,755.785771 L220.72577,718.613439 C222.524257,716.561265 224.900829,715.010474 227.624253,714.124308 L256.438588,704.772925 C257.37637,704.469763 258.211382,703.875099 258.750928,703.082213 L297.033014,647.673518 C300.488679,642.706324 307.117389,640.199407 313.412094,641.435375 L324.215864,643.59249 C325.783117,643.662451 326.361202,643.59249 326.887902,643.382609 L351.154633,634.369368 C352.285111,633.961265 353.145816,633.168379 353.608284,632.177273 C354.070752,631.162846 354.070752,630.043478 353.595438,629.029051 L345.193933,610.687747 L330.073794,569.352767 C329.161704,566.86917 329.046087,564.210672 329.726943,561.657115 L337.820135,531.305929 C338.963459,527.05 342.277814,523.482016 346.684108,521.744664 L358.811051,516.999012 C368.355879,513.221146 379.750581,519.762451 380.328666,529.078854 L381.908765,554.987549 C382.024382,557.086364 381.626146,559.173518 380.752595,561.074111 L366.274773,593.081028 C365.696687,594.351976 365.850843,595.797826 366.698702,596.940514 L381.0866,616.261265 C381.921612,617.392292 383.321862,618.056917 384.824884,618.056917 L421.488331,614.920356 C421.66818,614.897036 422.772965,614.850395 422.939967,614.850395 C428.849282,614.850395 434.15482,617.858696 436.775472,622.674308 L448.876722,645.07332 C449.994354,647.148814 452.062614,647.358696 452.897626,647.358696 C453.604174,647.358696 455.955054,647.172134 457.046993,644.875099 L468.133382,621.321739 C469.996101,617.368972 473.670153,614.453953 478.24345,613.311265 L523.257016,602.152569 C526.134595,601.476285 529.050714,602.922134 529.924265,605.487352 L531.902601,611.399012 C532.480686,613.101383 534.253481,614.290711 536.21897,614.290711 L563.029277,614.290711 C564.98192,614.290711 566.690483,613.159684 567.307107,611.503953 L579.81944,577.17668 L592.55016,529.545257 C594.245876,523.237154 600.412118,518.841304 607.580375,518.841304 C611.228735,518.841304 614.78717,520.042292 617.574825,522.222727 L627.787664,530.163241 C631.012094,532.670158 633.350128,530.991107 634.557683,529.183794 L645.412838,513.011265 C646.222158,511.798617 646.286389,510.259486 645.579841,509.011858 L633.696979,488.198617 C631.628718,484.572332 631.397484,480.328063 633.067508,476.550198 L638.796975,463.549209 C641.160701,458.208893 646.77455,454.75751 653.107795,454.75751 L706.792639,454.75751 C709.361906,454.75751 711.584323,456.378261 712.123869,458.663636 C712.676261,460.937352 711.391627,463.257708 709.053594,464.225494 L699.277531,468.259881 C697.132193,469.146047 696.09164,471.408103 696.900959,473.401976 L707.229414,498.750988 C707.76896,500.033597 708.090119,501.456126 708.180043,502.925296 L711.057623,558.05415 C711.147547,559.931423 712.637722,561.505534 714.654597,561.878656 L754.092853,569.154545 C760.991336,570.413834 766.078486,575.76581 766.425337,582.155534 L767.491583,601.417984 C767.542968,602.502372 768.095361,603.540119 768.994604,604.263043 L790.679222,621.811462 C794.892821,625.227866 796.691308,630.26502 795.470906,635.267194 C794.250504,640.292688 790.293832,644.175494 784.872678,645.656324 L779.32306,647.183794 C777.074951,647.813439 775.713239,649.923913 776.239939,652.011067 L779.84976,666.422925 C780.325074,668.288538 782.136408,669.594466 784.256053,669.594466 L811.644445,669.594466 C819.288015,669.594466 825.698338,674.57332 826.893047,681.429447 L830.001861,699.432609 C830.168863,700.330435 830.644178,701.1583 831.389265,701.799605 L859.535591,725.656126 C860.023751,726.064229 860.576144,726.367391 861.192768,726.553953 L923.458966,745.186759 C929.805056,747.087352 934.057194,752.427668 934.057194,758.479249 L934.057194,771.9583 C934.057194,776.587352 931.539312,780.913241 927.325713,783.525099 L848.410662,832.450791 C850.157764,833.301976 851.725017,834.467984 853.022498,835.890514 L855.822999,838.980435 C858.726271,842.151976 859.908134,846.314625 859.111661,850.372332 C858.302342,854.418379 855.604611,857.928063 851.686478,859.991897 L835.769866,868.387154 C828.139142,872.409881 817.566606,869.29664 813.956785,862.044071 L809.396336,852.867589 C807.045456,848.121937 807.764851,842.618379 811.271901,838.514032 C812.132606,837.511265 812.440918,836.228656 812.08122,834.992688 C811.734369,833.756719 810.78374,832.753953 809.499106,832.240909 L793.582494,826.014427 C793.017255,825.781225 792.413478,825.676285 791.784007,825.676285 L755.043482,832.509091 C753.656078,832.765613 752.461368,833.640119 751.870437,834.817787 L713.575505,911.144664 C713.061651,912.194071 713.035959,913.395059 713.536966,914.456126 L714.089358,915.610474 C716.003463,919.679842 715.73369,924.203953 713.318578,928.040119 C710.916313,931.876285 706.792639,934.418182 701.975262,935.001186 L689.912551,936.482016 C688.345298,936.691897 687.009279,937.601383 686.379808,938.918972 L682.127671,947.838933 C678.697699,955.021542 668.536246,958.298024 660.828443,954.683399 L657.115852,952.922727 C655.959681,952.363043 654.520892,952.304743 653.261951,952.771146 L620.388173,965.399012 C618.782381,966.016996 617.703289,967.427866 617.639057,969.001976 L616.303038,999.877866 C616.277345,1000.40257 616.354423,1000.90395 616.547118,1001.37036 L627.260964,1029.52945 C628.879602,1033.77372 628.198746,1038.33281 625.398245,1042.01739 C622.597743,1045.71364 618.165757,1047.92905 613.219917,1048.09229 L609.430247,1048.22055 L609.391708,1048.22055 C603.443854,1048.22055 598.369551,1045.58538 595.620435,1041.36443 L592.845626,1037.13182 C590.237819,1033.14407 589.968046,1028.2585 592.139077,1024.06087 C592.948396,1022.46344 594.078874,1021.05257 595.453432,1019.8749 L585.137823,1016.07372 C582.196012,1015.00099 579.716669,1013.14704 577.982413,1010.72174 L552.392509,974.773715 C550.761024,972.5 549.913166,969.864822 549.913166,967.159684 L549.913166,931.22332 C549.913166,930.010672 549.322235,928.867984 548.294528,928.075099 L518.465332,905.419565 C517.810169,904.918182 517.026542,904.60336 516.19153,904.498419 L494.468374,901.68834 C490.113465,901.116996 486.221025,898.901581 483.805914,895.590119 L474.685014,883.183794 L443.172948,842.058696 C441.451539,839.866601 437.52056,839.831621 435.786304,842.047036 L420.33216,862.020751 C419.330146,863.32668 419.240222,865.064032 420.113773,866.428261 L453.976718,919.201779 C454.272184,919.668182 454.683267,920.076285 455.171428,920.414427 L476.920277,935.385968 L504.064588,948.456917 C506.646702,949.692885 508.766347,951.570158 510.217983,953.855534 L523.809408,975.263439 C524.849962,976.161265 525.505125,977.443874 525.505125,978.854743 C525.505125,981.583202 523.064321,983.810277 520.032585,983.810277 C519.968354,983.810277 519.865583,983.821937 519.775658,983.810277 C518.876415,983.810277 517.964325,983.612055 517.142159,983.192292 L502.857032,976.067984 L501.713708,976.476087 L506.96786,991.284387 C508.393803,995.318775 507.777179,999.644664 505.233604,1003.18933 L491.256789,1022.85988 C489.933617,1024.70217 487.454274,1025.53004 485.11624,1024.92372 C482.791053,1024.30573 481.198107,1022.37016 481.198107,1020.17806 L481.198107,998.630237 L476.41927,978.36502 C476.162343,977.303953 475.442948,976.371146 474.440934,975.788142 L422.29765,945.868379 C421.66818,945.518577 421.038709,945.087154 420.434931,944.620751 L392.211528,922.37332 C389.552336,920.274506 387.753849,917.394466 387.137225,914.257905 L382.10146,888.594071 C381.831687,887.183202 380.765441,886.017194 379.288112,885.49249 L355.779315,877.155534 C354.366218,876.67747 352.657655,876.875692 351.398714,877.726877 L342.239275,884.06996 C338.590915,886.600198 333.735,887.521344 329.31586,886.553557 L322.879845,885.166008 C320.464733,885.200988 319.090175,885.667391 318.255163,886.681818 L309.622425,897.117589 C307.271545,899.974308 303.841573,901.886561 299.949132,902.516206 L252.546147,910.095257 C250.554965,910.410079 249.026251,911.902569 248.833556,913.721542 L246.765296,933.298814 C246.264288,937.916206 243.283938,942.008893 238.826259,944.235968 L203.229058,961.947628 C202.175658,962.472332 201.392032,963.358498 201.070873,964.407905 L187.055519,1009.22925 C186.464588,1011.10652 185.462573,1012.84387 184.062323,1014.35968 L155.222295,1045.77194 C152.370408,1048.88518 148.169656,1050.71581 143.686284,1050.80909 L105.943745,1051.43874 C105.237196,1051.4504 104.517801,1051.6253 103.875484,1051.92846 L91.2732274,1058.07332 C89.050811,1059.08775 86.5329289,1059.65909 84.0022004,1059.65909 L84.0022004,1059.65909 Z M38.9372487,911.307905 C36.4579056,911.307905 34.415338,913.138538 34.415338,915.400593 L34.415338,1032.16462 C34.415338,1034.41502 36.4450593,1036.25731 38.9372487,1036.25731 L63.8334507,1036.25731 C69.2674514,1036.25731 74.354601,1038.89249 77.1165635,1043.13676 L80.1097602,1047.75415 C81.2916232,1049.5498 84.0535858,1050.31937 86.1089997,1049.26996 L98.7369494,1043.1251 C100.882288,1042.09901 103.284553,1041.52767 105.725357,1041.46937 L143.480743,1040.83972 C144.791069,1040.8164 146.011471,1040.28004 146.846483,1039.37055 L175.699357,1007.94664 C176.097593,1007.51522 176.405905,1007.00217 176.560062,1006.46581 L190.575416,961.644466 C191.705893,958.029842 194.339393,955.033202 197.974906,953.190909 L233.584953,935.467589 C234.89528,934.814625 235.755984,933.625296 235.91014,932.272727 L237.978401,912.718775 C238.633564,906.492292 243.849177,901.361858 250.644889,900.27747 L298.060721,892.698419 C299.204045,892.511858 300.206059,891.963834 300.886915,891.135968 L309.519654,880.700198 C313.116628,876.316008 319.526951,874.158893 325.436266,875.488142 L331.859435,876.875692 C333.760693,876.980632 334.839785,876.67747 335.636258,876.141107 L344.795696,869.809684 C349.022141,866.894664 354.854379,866.160079 359.735987,867.885771 L383.270477,876.234387 C388.267702,877.995059 391.928908,882.064427 392.853845,886.833399 L397.876763,912.473913 C398.069458,913.395059 398.596158,914.234585 399.354091,914.840909 L427.577495,937.08834 L480.260325,967.381225 C483.728836,969.363439 486.208179,972.593281 487.068883,976.231225 L491.74495,995.610277 C491.989031,996.601383 492.091801,997.60415 492.091801,998.606917 L492.091801,1003.34091 L496.035627,997.790711 C496.780714,996.752964 496.960563,995.493676 496.54948,994.304348 L489.728075,975.111858 C488.854524,972.628261 490.229082,969.958103 492.888274,968.990316 L501.174162,965.982016 C502.510181,965.503953 504.000356,965.515613 505.297836,966.005336 L500.737386,958.799407 C500.313457,958.123123 499.683987,957.586759 498.926053,957.213636 L472.411212,944.50415 C471.666125,944.154348 470.94673,943.734585 470.27872,943.279842 L448.529871,928.3083 C446.88554,927.165613 445.549521,925.789723 444.508967,924.180632 L410.646022,871.407115 C407.639979,866.708103 407.909752,860.784783 411.365417,856.318972 L426.819561,836.345257 C432.587566,828.871146 446.35884,828.894466 452.101153,836.391897 L492.862582,890.098221 C493.581976,891.066008 494.712454,891.718972 495.984242,891.870553 L517.707398,894.680632 C520.546439,895.042095 523.218477,896.126482 525.440893,897.817194 L555.282935,920.484387 C558.789985,923.154545 560.80686,927.060672 560.80686,931.22332 L560.80686,967.148024 C560.80686,967.929249 561.063787,968.710474 561.539101,969.363439 L587.193237,1005.2998 C587.707091,1006.01107 588.426486,1006.54743 589.274344,1006.86225 L610.021179,1014.4996 L606.257202,1004.58854 C605.627731,1002.94447 605.357958,1001.21877 605.435036,999.469763 L606.771055,968.605534 C607.015136,963.218577 610.702035,958.367984 616.161728,956.25751 L649.048352,943.629644 C653.30049,942.020553 658.182098,942.207115 662.203001,944.119368 L665.928439,945.88004 C668.189395,946.999407 671.144052,945.99664 672.146067,943.886166 L676.398204,934.966206 C678.556389,930.430435 683.0783,927.328854 688.473761,926.652569 L700.549319,925.171739 C701.949569,924.996838 703.157125,924.262253 703.850827,923.142885 C704.557376,922.011858 704.6473,920.694269 704.082061,919.493281 L703.529669,918.338933 C701.821106,914.712648 701.872491,910.59664 703.670979,907.016996 L741.965911,830.678458 C744.008478,826.620751 748.080767,823.659091 752.872451,822.772925 L788.700886,816.021739 C791.848239,815.427075 795.059823,815.741897 797.963095,816.884585 L813.879707,823.111067 C818.298847,824.860079 821.523278,828.276482 822.705141,832.509091 C823.899851,836.73004 822.897836,841.125889 819.930332,844.565613 C818.915472,845.778261 818.697084,847.375692 819.390786,848.763241 L823.951236,857.939723 C824.991789,860.050198 828.023525,860.983004 830.310173,859.793676 L846.226785,851.398419 C847.794038,850.570553 848.256506,849.276285 848.397816,848.58834 C848.539126,847.877075 848.603357,846.524506 847.447187,845.253557 L844.646686,842.175296 C843.785981,841.23083 842.514194,840.682806 841.165328,840.682806 L833.470372,840.682806 C831.068107,840.682806 828.961308,839.271937 828.254759,837.184783 C827.54821,835.109289 828.421761,832.858893 830.387251,831.634585 L921.223703,775.304743 C922.469798,774.535178 923.202039,773.275889 923.202039,771.92332 L923.202039,758.444269 C923.202039,756.683597 921.943098,755.121146 920.093225,754.561462 L857.839874,735.928656 C855.681689,735.287352 853.767585,734.249605 852.1361,732.850395 L823.989775,708.993874 C821.484739,706.860079 819.814715,704.00336 819.275169,700.948419 L816.166355,682.933597 C815.819504,680.928063 813.943939,679.470553 811.708676,679.470553 L784.320285,679.470553 C777.087797,679.470553 770.895862,675.004743 769.277224,668.60336 L765.667403,654.179842 C763.868916,647.043874 768.506444,639.791304 776.227092,637.66917 L781.77671,636.1417 C784.063358,635.500395 784.705675,633.809684 784.872678,633.098419 C785.03968,632.387154 785.245221,630.603162 783.472427,629.168972 L761.787809,611.620553 C758.717535,609.125296 756.841969,605.557312 756.649274,601.861067 L755.583028,582.610277 C755.480257,580.744664 754.002929,579.182213 751.9989,578.820751 L712.547798,571.533202 C705.623622,570.250593 700.549319,564.875296 700.215314,558.473913 L697.337734,503.356719 C697.312042,502.936957 697.222117,502.540514 697.067961,502.179051 L686.72666,476.771739 C685.030943,472.620751 685.67326,468.154941 688.062679,464.610277 L653.15918,464.610277 C651.309307,464.610277 649.677822,465.624704 648.98412,467.187154 L643.254654,480.188142 C642.766493,481.29585 642.830725,482.531818 643.447349,483.592885 L655.317365,504.394466 C657.783861,508.697036 657.591166,513.955731 654.803511,518.118379 L643.948356,534.290909 C639.195211,541.333597 627.672046,543.024308 620.735024,537.649012 L610.522186,529.696838 C609.468786,528.880632 608.364001,528.705731 607.618914,528.705731 C605.833273,528.705731 603.777859,529.673518 603.199774,531.842292 L590.571824,579.158893 C590.533285,579.322134 590.250666,580.18498 590.19928,580.348221 L577.71264,614.593874 C575.631534,620.318972 569.747911,624.178458 563.067816,624.178458 L536.257509,624.178458 C529.423258,624.178458 523.501096,620.202372 521.509914,614.267391 L521.073139,612.961462 L481.185261,622.86087 C479.849242,623.187352 478.770149,624.050198 478.230603,625.192885 L467.144214,648.746245 C464.677717,653.981621 459.243717,657.246443 452.961858,657.246443 C447.039696,657.246443 441.734159,654.238142 439.126352,649.41087 L427.037949,627.023518 C426.280015,625.635968 424.687069,624.738142 423.004199,624.738142 L386.340752,627.874704 C386.160903,627.898024 385.068964,627.944664 384.901962,627.944664 C379.78912,627.944664 374.997436,625.647628 372.119856,621.799802 L357.719112,602.455731 C354.828686,598.549605 354.276293,593.629051 356.241783,589.291502 L370.732452,557.272925 C371.002225,556.701581 371.104995,556.083597 371.066456,555.477273 L369.486357,529.580237 C369.306508,526.455336 365.799458,525.032806 363.217344,526.058893 L351.090402,530.804545 C349.805768,531.305929 348.842293,532.355336 348.508288,533.602964 L340.415095,563.94249 C340.209554,564.688735 340.248093,565.4583 340.517866,566.169565 L355.239769,606.536759 L363.769737,625.169565 C365.362683,628.632609 365.362683,632.457115 363.769737,635.931818 C362.189637,639.406522 359.209287,642.08834 355.368232,643.499209 L331.114347,652.512451 C328.223921,653.573518 324.99949,653.818379 321.942062,653.223715 L311.163985,651.066601 C308.748874,651.101581 307.194467,651.684585 306.372301,652.885573 L268.077369,708.305929 C266.227497,710.964427 263.439842,712.993281 260.189718,714.054348 L231.375383,723.405731 C230.57891,723.662253 229.885208,724.116996 229.371355,724.7 L196.882967,761.872332 C193.273147,765.98834 187.389524,767.958893 181.68575,766.897826 L173.142936,765.288735 C170.1112,765.230435 168.338406,766.489723 167.850245,768.343676 C166.064604,775.118182 160.643449,779.409091 154.091817,779.992095 L141.823565,781.076482 C138.766137,781.344664 138.008203,783.63004 137.841201,784.317984 C137.687044,785.005929 137.378732,787.372925 140.076463,788.713834 L151.484011,794.438933 C154.194588,795.779842 156.391312,797.855336 157.804409,800.408893 L187.479448,854.150198 C189.50917,857.823123 189.650479,862.114032 187.877685,865.880237 L170.740671,902.691107 C168.312713,907.891502 162.724556,911.237945 156.532621,911.237945 L38.9372487,911.237945 L38.9372487,911.307905 Z M613.785156,1024.31739 C613.168532,1024.67885 612.461983,1024.93538 611.704049,1025.05198 L605.460729,1025.96146 C603.970554,1026.183 602.737306,1027.02253 602.094989,1028.2585 C601.452672,1029.49447 601.52975,1030.89368 602.30053,1032.07134 L605.075339,1036.30395 C605.884658,1037.53992 607.374833,1038.30949 608.967779,1038.30949 L612.911605,1038.18123 C614.363241,1038.13458 615.660721,1037.48162 616.47004,1036.40889 C617.279359,1035.33617 617.484901,1034.00692 617.022433,1032.75929 L613.785156,1024.31739 L613.785156,1024.31739 Z" id="Shape"></path>
                    <path d="M472.192825,1044.65257 L453.154553,1044.65257 C451.612992,1044.65257 450.14851,1044.05791 449.120803,1043.03182 L436.711241,1030.63715 C435.503685,1029.42451 435.02837,1027.76877 435.426607,1026.17134 C435.83769,1024.58557 437.070938,1023.2913 438.740962,1022.68498 L472.257056,1010.6751 C474.042697,1010.06877 475.995341,1010.29032 477.498362,1011.30474 C479.01423,1012.31917 479.849242,1013.9749 479.707932,1015.66561 L477.639672,1040.08182 C477.408438,1042.6587 475.044712,1044.65257 472.192825,1044.65257 L472.192825,1044.65257 Z M455.569664,1034.7415 L467.131368,1034.7415 L468.146228,1022.80158 L450.084278,1029.28458 L455.569664,1034.7415 L455.569664,1034.7415 Z" id="Shape"></path>
                    <path d="M350.730704,990.561462 C350.216851,990.561462 349.690151,990.491502 349.189144,990.351581 C347.467735,989.896838 346.118869,988.69585 345.55363,987.168379 L337.473284,965.002569 C336.741043,962.997036 337.48613,960.804941 339.336003,959.510672 L355.483849,948.247036 C356.819868,947.325889 358.554124,946.999407 360.14707,947.37253 C361.765708,947.745652 363.101727,948.771739 363.795429,950.159289 L373.725648,970.436166 C374.727663,972.5 374.085346,974.901976 372.158395,976.312846 L354.160676,989.465415 C353.184355,990.18834 351.963953,990.561462 350.730704,990.561462 L350.730704,990.561462 Z M349.047834,965.224111 L353.441282,977.257312 L362.035481,970.98419 L356.627173,959.942095 L349.047834,965.224111 L349.047834,965.224111 Z" id="Shape"></path>
                    <path d="M360.352611,954.86996 C360.00576,954.86996 359.646062,954.84664 359.299211,954.77668 C357.629188,954.485178 356.203244,953.494071 355.44531,952.106522 L350.78209,943.466403 C349.818614,941.682411 350.126926,939.536957 351.565716,938.032806 L360.892157,928.26166 C362.369486,926.699209 364.771751,926.139526 366.929936,926.862451 C369.062428,927.597036 370.475525,929.439328 370.475525,931.503162 L370.475525,946.159881 C370.475525,947.570751 369.807515,948.92332 368.638499,949.856126 L363.988125,953.610672 C362.973264,954.438538 361.68863,954.86996 360.352611,954.86996 L360.352611,954.86996 Z" id="Shape"></path>
                    <path d="M15.8652267,698.558103 C13.475808,698.558103 11.2276989,697.718577 9.51913603,696.179447 L2.67203818,690.022925 C-0.719394896,686.967984 -0.886397282,682.035771 2.27380172,678.794269 L17.5095579,663.099802 C13.9254298,660.674506 12.2040206,658.867194 12.2425596,656.325296 C12.2554059,654.832806 13.1032642,653.258696 14.4007443,652.314229 L12.2040206,652.069368 C9.45490434,651.777866 7.38664402,649.667391 7.38664402,647.148814 L7.38664402,623.408893 C7.38664402,621.671542 7.97757554,620.00415 9.10805323,618.604941 L23.8171096,600.112055 C25.0246653,598.596245 26.7974599,597.476877 28.8271812,596.987154 L63.769219,588.638538 C64.2188408,588.533597 65.5933989,588.382016 66.0687134,588.382016 C69.8583829,588.382016 73.2755087,590.562451 74.5601424,593.803953 L82.8845691,614.932016 C83.6938883,616.914229 83.5782713,619.211265 82.5634106,621.181818 L72.4404967,640.549209 L75.536464,662.306917 C75.9475468,665.536759 74.2261376,668.68498 71.1430166,670.329051 L20.4770619,697.415415 C19.0768111,698.16166 17.4838652,698.558103 15.8652267,698.558103 L15.8652267,698.558103 Z M11.6387817,684.134585 L16.1735388,688.215613 L64.5271529,662.365217 L61.7394977,640.770751 C61.5339563,639.21996 61.8165757,637.66917 62.5488169,636.293281 L72.299187,617.602174 L64.796926,598.584585 L32.2443069,606.420158 L17.933487,624.42332 L18.2161065,642.729644 L27.5297011,643.732411 C29.6365004,643.965613 31.409295,645.259881 32.0773045,647.090514 C32.7453141,648.909486 32.1929216,650.91502 30.6642074,652.244269 C28.8014885,653.8417 27.1956963,655.205929 25.8468309,656.336957 C27.7609352,657.689526 28.9941836,659.671739 29.276803,661.852174 C29.5722687,664.149209 28.7757958,666.469565 27.0929256,668.218577 L11.6387817,684.134585 L11.6387817,684.134585 Z" id="Shape"></path>
                    <path d="M442.980253,580.639723 C439.293355,580.639723 436.017538,578.63419 434.630134,575.544269 L378.401715,451.317787 L363.538503,486.123123 C362.202484,489.248024 358.836743,491.346838 355.136998,491.346838 L305.100514,491.346838 C302.261473,491.346838 299.653667,490.16917 297.919411,488.128656 C296.198002,486.088142 295.645609,483.499605 296.390697,481.016008 L322.353145,393.623715 L298.304801,400.981225 C297.739562,401.144466 296.031,401.400988 295.440068,401.400988 C291.367779,401.400988 287.783651,398.905731 286.730251,395.326087 L282.426728,380.797628 C281.630255,378.150791 282.34965,375.317391 284.353679,373.253557 L333.863463,322.520553 C334.749861,321.599407 335.906031,320.853162 337.203511,320.363439 L393.008001,299.86502 L387.792388,298.092688 C385.36443,297.276482 383.424633,295.51581 382.499697,293.277075 L378.337483,283.004545 C376.808769,279.18004 378.607257,274.88913 382.512543,272.965217 L400.317567,264.278458 L459.295102,152.773123 C459.410719,152.563241 459.808955,151.945257 459.950265,151.747036 L519.017725,74.3124506 C519.685734,73.4146245 520.649209,72.5867589 521.766841,71.9687747 L582.27309,38.5743083 L653.082102,4.18873518 C654.276811,3.60573123 655.638523,3.26758893 657.013081,3.22094862 L744.59941,0.329249012 L744.612256,0.329249012 C748.761623,0.329249012 752.178749,2.52134387 753.450536,5.79782609 L756.790584,14.3913043 C757.933908,17.3646245 757.098896,20.6994071 754.670938,22.9031621 L731.187833,44.2294466 L724.95736,109.992292 L745.884043,128.986561 C747.926611,130.852174 748.864394,133.499012 748.389079,136.087549 L739.717801,186.190909 L757.111742,230.079447 C757.818291,231.828458 757.818291,233.787352 757.098896,235.571344 L747.104445,261.445059 L757.599903,312.271344 L773.195357,329.959684 C775.726085,332.909684 775.751778,337.014032 773.285281,339.964032 L708.102965,417.9 C706.47148,419.858893 703.966444,421.048221 701.243021,421.129842 L659.608041,422.564032 L628.609829,432.510079 C628.031744,432.69664 626.233257,432.976482 625.629479,432.976482 C623.586911,432.976482 621.582883,432.335178 620.002783,431.18083 L591.291219,410.355929 C589.377115,408.956719 588.156713,406.881225 587.938325,404.66581 L582.375861,341.24664 C582.183166,339.054545 582.9411,336.944071 584.508353,335.27668 L624.113611,293.463636 L659.107034,254.635573 L638.373046,214.39664 L604.754181,220.658103 L585.446135,258.518379 L580.012135,295.282609 C579.703823,297.463043 578.457728,299.386957 576.530777,300.704545 L516.397072,342.354348 L495.277693,430.667787 L523.719484,427.496245 C527.303612,427.484585 529.860033,428.429051 531.55575,430.178063 C533.264313,431.915415 534.073632,434.247431 533.778166,436.556126 L532.08245,449.836957 C531.684213,453.136759 529.025021,455.935178 525.466586,456.809684 L497.564341,463.59585 L488.957295,555.932016 C488.674676,558.777075 486.850496,561.225692 484.088533,562.51996 L447.052542,579.718577 C445.819294,580.313241 444.39335,580.639723 442.980253,580.639723 L442.980253,580.639723 Z M378.337483,438.468379 C382.011536,438.468379 385.287352,440.462253 386.674756,443.552174 L443.930882,570.064032 L478.166372,554.159684 L486.79911,461.578656 C487.120269,458.162253 489.779461,455.258893 493.453513,454.361067 L521.407143,447.563241 L522.678931,437.617194 L493.980213,440.812055 C490.010695,440.765415 487.569891,439.762648 485.835635,437.815415 C484.127072,435.868182 483.471909,433.372925 484.06284,430.935968 L505.888768,339.637549 C506.364082,337.701976 507.558792,336.022925 509.254508,334.856917 L569.298289,293.253755 L574.73229,256.711067 C574.809368,256.209684 575.25899,254.798814 575.50307,254.332411 L595.196505,215.714229 C596.404061,213.370553 598.767787,211.656522 601.568289,211.131818 L637.627958,204.450593 C637.987655,204.380632 639.066748,204.287352 639.439292,204.287352 C642.920649,204.287352 646.119387,206.129644 647.596716,208.986364 L669.474028,251.440711 C670.925665,254.285771 670.463196,257.678854 668.279319,260.09249 L632.450884,299.8417 L593.295248,341.17668 L598.716402,403.0917 L625.963484,422.867194 L656.537767,413.142688 C657.05162,412.979447 658.644566,412.699605 659.196959,412.676285 L699.932694,411.277075 L763.689067,335.055138 L748.63316,317.6583 C747.708223,316.585573 747.104445,315.337945 746.847519,314.043676 L736.416293,262.354545 C736.14652,260.978656 736.24929,259.532806 736.750298,258.203557 L746.577746,232.831225 L729.312268,188.674506 C728.824107,187.426877 728.669951,186.050988 728.901185,184.710079 L737.431153,135.376285 L716.568701,116.440316 C714.693136,114.737945 713.742507,112.370949 713.960895,109.957312 L720.332678,42.7486166 C720.499681,40.8480237 721.437463,39.0057312 722.979024,37.6298419 L746.076738,16.6650198 L743.597395,10.2752964 L657.385625,13.1203557 L587.835554,47.086166 L527.419229,80.4456522 L468.98124,157.308893 L409.335696,269.350593 C408.526376,270.889723 407.203204,272.149012 405.520333,272.976877 L389.1541,280.975692 L392.442762,289.079447 L409.965166,295.049407 C412.071966,295.772332 413.472216,297.579644 413.497909,299.631818 C413.523602,301.683992 412.174736,303.514625 410.080783,304.28419 L341.327185,329.539921 L293.230498,379.095257 L296.776087,391.058498 L322.211835,383.269565 C322.777074,383.106324 324.498483,382.849802 325.089415,382.849802 C327.864224,382.849802 330.536262,384.050791 332.244825,386.067984 C333.953388,388.108498 334.518626,390.685375 333.773539,393.168972 L307.567011,481.412451 L353.813825,481.412451 L369.935979,443.657115 C371.284844,440.520553 374.586353,438.468379 378.337483,438.468379 L378.337483,438.468379 Z" id="Shape"></path>
                    <path d="M116.824593,735.182411 C116.297893,735.182411 114.756332,734.97253 114.255325,734.844269 L91.1319177,728.547826 C88.973733,727.953162 87.4321725,726.22747 87.2523238,724.186957 C87.0724751,722.146443 88.3057234,720.22253 90.3225984,719.336364 L121.719047,705.635771 L133.987299,695.491502 L107.96062,691.666996 C104.761882,691.200593 102.064151,689.183399 100.946519,686.41996 C99.8160418,683.656522 100.432666,680.531621 102.539465,678.292885 L131.315261,647.440316 L126.369421,600.403557 L111.377745,604.950988 C110.825353,605.114229 109.129636,605.359091 108.538705,605.359091 C106.085054,605.359091 103.682789,604.414625 101.987073,602.770553 C100.27851,601.138142 99.404959,598.911067 99.559115,596.672332 L101.241985,571.941304 L74.431679,529.148814 C72.8772722,526.630237 72.9029649,523.505336 74.5344497,520.986759 L97.7220888,485.458498 C99.3407273,482.986561 102.295385,481.447431 105.481277,481.447431 L124.982017,481.447431 C126.998892,481.447431 128.848764,482.450198 129.799393,484.070949 C130.750022,485.6917 130.634405,487.650593 129.516774,489.166403 L115.796886,507.740909 C116.323585,507.659289 116.850285,507.612648 117.389831,507.612648 C117.839453,507.612648 119.201165,507.775889 119.650787,507.86917 L143.622052,513.570949 C148.0155,514.608696 150.867387,518.468182 150.276455,522.56087 L148.323812,536.552964 C148.11827,537.940514 147.578724,539.199802 146.71802,540.27253 C141.733641,546.487352 135.233394,554.672727 131.135412,559.931423 C135.271933,561.633794 141.605177,564.583794 151.458318,569.667589 C152.588796,570.238933 153.513732,571.020158 154.323051,572.034585 L184.010937,610.990909 C184.858796,612.098617 185.398342,613.427866 185.565344,614.827075 L189.560555,652.174308 L194.005388,660.744466 L202.085734,657.479644 C207.121498,655.497431 213.28774,658.447431 214.443911,663.263043 L217.372876,675.622727 C217.873883,677.744862 217.398568,680.006917 216.075395,681.837549 L194.262315,711.710672 C192.7336,713.821146 190.254257,715.150395 187.466602,715.360277 L137.507196,718.84664 L123.491842,732.593874 C121.731893,734.237945 119.316782,735.182411 116.824593,735.182411 L116.824593,735.182411 Z M107.755078,722.717787 L116.246507,725.026482 L127.512745,713.972727 C127.127355,714.217589 126.741965,714.42747 126.54927,714.520751 L107.755078,722.717787 L107.755078,722.717787 Z M113.047769,682.350593 L139.639688,686.268379 C143.082506,686.781423 145.831622,688.973518 146.846483,692.016798 C147.835651,695.060079 146.846483,698.266601 144.264369,700.412055 L133.062363,709.600198 C133.94876,709.262055 134.925082,709.040514 135.91425,708.982213 L185.629576,705.50751 L206.479181,676.963636 L204.192533,667.274111 L196.52327,670.387352 C192.052744,672.101383 186.785746,670.17747 184.794564,666.306324 L179.437641,655.742292 C179.180714,655.229249 178.718246,653.655138 178.654015,653.107115 L174.658804,615.794862 L145.356308,577.713043 C134.346997,572.197826 125.945492,568.466601 123.119298,567.603755 C122.875217,567.638735 122.579752,567.603755 122.399903,567.650395 C120.357335,567.650395 118.468924,566.612648 117.531141,564.956917 C116.708975,563.487747 116.2722,562.729842 118.62308,559.138538 L118.62308,559.138538 C121.07673,555.383992 126.587809,548.504545 137.854047,534.43083 L139.241451,522.770751 L116.875978,517.453755 L103.464402,522.899012 C101.241985,523.726877 98.6727177,523.143874 97.1440036,521.464822 C95.6281358,519.774111 95.4996724,517.372134 96.8485378,515.564822 L114.743486,491.346838 L106.560369,491.346838 L84.5032076,525.149407 L111.005202,568.035178 C111.827367,569.352767 112.23845,570.915217 112.148526,572.512648 L110.632658,594.806719 L125.238944,590.375889 C125.791336,590.212648 127.487053,589.967787 128.065138,589.967787 C132.741205,589.967787 136.595106,593.150988 137.031881,597.383597 L142.260341,647.218775 C142.491575,649.387549 141.733641,651.579644 140.204927,653.258696 L113.047769,682.350593 L113.047769,682.350593 Z" id="Shape"></path>
                </g>
                <path d="M171,743.531128 C172.151832,738.863319 173.796462,734.389602 175.875532,730.168334 C177.471864,727.044325 178.827622,725.104561 181.168759,722.549268 C234.685698,669.559246 276.998138,783.869207 279.266096,789.808095 C282.133685,795.949592 278.928589,796.55132 277.791188,795.975736 C273.851254,794.82615 263.270605,785.969254 255.853682,781.11485 C253.209828,779.15381 250.765927,777.875954 250.687129,777.67242 C249.01461,776.301585 248.232488,774.395598 247.461994,770.021785 C242.050522,744.669716 204.681153,730.182839 171.463448,743.308782 C171.306154,743.384293 171.151685,743.458402 171,743.531128 Z M172.52257,780.744788 C172.159686,779.435497 171.897914,778.120879 171.897914,776.874334 C171.897915,739.67833 215.750129,757.065196 221.571367,759.974789 C230.846392,764.490802 238.886416,787.692839 241.308614,788.263361 C247.322581,792.178567 249.183747,793.232012 250.219114,793.759751 C254.01146,796.029738 259.971525,800.221334 261.979933,801.681803 C270.311049,808.328549 284.649087,812.922083 285.967652,812.922086 C285.234139,807.825182 298.352037,803.651781 298.352037,803.651781 C298.352037,803.651781 298.210601,801.681803 297.773078,798.514811 C293.259271,759.078751 273.728008,727.033098 273.728008,727.033098 C272.620923,725.144442 268.920737,719.331672 266.652018,723.516021 C244.236359,693.482868 213.259583,697.346297 213.259583,697.346297 C212.781185,697.346297 212.308269,697.352144 211.840778,697.363688 C219.215968,694.544412 227.221424,693 235.587597,693 C272.326756,693 302.109729,722.782973 302.109729,759.522132 C302.109729,765.607533 302.109729,774.761579 298.819992,783.053182 C301.345819,793.948411 303.65458,804.466494 302.825307,809.802679 C297.766824,816.046306 289.325455,821.361996 273.85796,813.940081 C263.034485,821.565872 249.834033,826.044264 235.587597,826.044264 C206.269152,826.044264 181.380614,807.077577 172.52257,780.744788 Z M261.570147,770.739265 C261.570147,770.739265 260.116958,770.291604 259.422846,770.929002 C257.449943,775.004608 268.197663,779.624934 269.763379,779.624934 C272.195157,776.561301 261.570147,770.739265 261.570147,770.739265 Z M258.072509,803.27357 C257.162917,802.681947 245.912375,795.072705 234.622782,788.593995 C235.54987,789.95377 233.330961,791.261151 231.847987,790.813068 C230.45198,790.537979 219.488834,783.220944 214.539083,782.118746 C198.966727,777.336013 197.336356,782.882328 197.336356,787.68597 C197.336357,800.11397 236.398448,819.2323 258.072509,803.27357 Z M232.921248,738.626084 C238.992366,736.769817 240.825499,737.518484 246.709578,739.689193 C236.651393,724.302087 231.948047,734.591292 232.921248,738.626084 Z" id="Oval-1-Copy-7" fill="#162945"></path>
                <path d="M379.18172,741.086249 L379.18172,808.291023 L360.593165,808.291023 L360.593165,741.086249 L337,741.086249 L337,725 L402.774885,725 L402.774885,741.086249 L379.18172,741.086249 Z M461.400327,808.291023 L444.599133,808.291023 L444.599133,800.545792 C439.991691,806.344815 434.292052,809.244283 427.500046,809.244283 C420.70804,809.244283 415.008402,807.278205 410.400959,803.345991 C405.793517,799.413777 403.48983,794.170904 403.48983,787.617214 C403.48983,781.063525 405.872954,776.158261 410.639274,772.901275 C415.405594,769.64429 421.919467,768.015822 430.181088,768.015822 L443.526717,768.015822 L443.526717,767.65835 C443.526717,760.826624 439.912312,757.410813 432.683393,757.410813 C429.585285,757.410813 426.30849,758.026454 422.852908,759.257753 C419.397326,760.489052 416.477999,762.018224 414.094839,763.845313 L406.111293,752.287045 C414.531791,746.170268 424.143725,743.111925 434.947384,743.111925 C442.732373,743.111925 449.087371,745.058143 454.012568,748.950638 C458.937765,752.843132 461.400327,758.999536 461.400327,767.420035 L461.400327,808.291023 Z M443.407559,783.863756 L443.407559,780.765664 L432.206764,780.765664 C425.057284,780.765664 421.482597,782.989913 421.482597,787.438478 C421.482597,789.7422 422.33655,791.509683 424.044482,792.740983 C425.752413,793.972282 428.195115,794.587922 431.372662,794.587922 C434.550208,794.587922 437.350379,793.614813 439.773259,791.668566 C442.196138,789.722319 443.407559,787.120741 443.407559,783.863756 Z M519.01293,803.524727 C514.365769,807.337783 508.467536,809.244283 501.318056,809.244283 C496.551736,809.244283 491.586894,808.39033 486.423381,806.682399 C481.259868,804.974467 476.612776,802.452327 472.481965,799.115904 L480.346354,787.915108 C487.019202,793.078621 494.128855,795.660339 501.675529,795.660339 C503.97925,795.660339 505.806312,795.203573 507.156769,794.290029 C508.507226,793.376484 509.182445,792.165063 509.182445,790.655728 C509.182445,789.146393 508.249054,787.756238 506.382246,786.485219 C504.515437,785.2142 501.814563,784.022638 498.279543,782.910497 C494.744522,781.798356 492.043648,780.845106 490.176839,780.050719 C488.310031,779.256333 486.185078,778.104489 483.801918,776.595155 C478.95616,773.576485 476.533317,769.108128 476.533317,763.189947 C476.533317,757.271767 478.916441,752.44594 483.682761,748.712323 C488.449081,744.978706 494.605485,743.111925 502.152158,743.111925 C509.698831,743.111925 517.245391,745.653924 524.792064,750.737999 L518.11925,762.653739 C512.558543,758.840683 507.01778,756.934184 501.496792,756.934184 C495.975805,756.934184 493.215353,758.443496 493.215353,761.462165 C493.215353,763.130377 494.089165,764.441095 495.836816,765.394359 C497.584466,766.347623 500.483934,767.459748 504.535306,768.730766 C508.586678,770.001785 511.466286,770.974894 513.174218,771.650123 C514.882149,772.325351 516.927664,773.377898 519.310824,774.807794 C523.759389,777.508708 525.983638,782.016785 525.983638,788.332159 C525.983638,794.647533 523.660092,799.711672 519.01293,803.524727 Z M580.974779,803.524727 C576.327617,807.337783 570.429385,809.244283 563.279905,809.244283 C558.513585,809.244283 553.548743,808.39033 548.38523,806.682399 C543.221717,804.974467 538.574624,802.452327 534.443814,799.115904 L542.308202,787.915108 C548.98105,793.078621 556.090704,795.660339 563.637377,795.660339 C565.941098,795.660339 567.76816,795.203573 569.118618,794.290029 C570.469075,793.376484 571.144293,792.165063 571.144293,790.655728 C571.144293,789.146393 570.210903,787.756238 568.344095,786.485219 C566.477286,785.2142 563.776412,784.022638 560.241391,782.910497 C556.706371,781.798356 554.005497,780.845106 552.138688,780.050719 C550.271879,779.256333 548.146927,778.104489 545.763767,776.595155 C540.918008,773.576485 538.495166,769.108128 538.495166,763.189947 C538.495166,757.271767 540.87829,752.44594 545.64461,748.712323 C550.410929,744.978706 556.567334,743.111925 564.114007,743.111925 C571.66068,743.111925 579.20724,745.653924 586.753913,750.737999 L580.081099,762.653739 C574.520392,758.840683 568.979628,756.934184 563.458641,756.934184 C557.937654,756.934184 555.177202,758.443496 555.177202,761.462165 C555.177202,763.130377 556.051014,764.441095 557.798665,765.394359 C559.546315,766.347623 562.445783,767.459748 566.497155,768.730766 C570.548527,770.001785 573.428135,770.974894 575.136066,771.650123 C576.843998,772.325351 578.889513,773.377898 581.272673,774.807794 C585.721238,777.508708 587.945487,782.016785 587.945487,788.332159 C587.945487,794.647533 585.621941,799.711672 580.974779,803.524727 Z M620.415879,789.047103 C623.394829,792.343808 627.207827,793.992135 631.854989,793.992135 C636.502151,793.992135 640.31515,792.343808 643.2941,789.047103 C646.27305,785.750399 647.762502,781.480634 647.762502,776.237683 C647.762502,770.994731 646.27305,766.705107 643.2941,763.368683 C640.31515,760.032259 636.502151,758.364072 631.854989,758.364072 C627.207827,758.364072 623.394829,760.032259 620.415879,763.368683 C617.436929,766.705107 615.947476,770.994731 615.947476,776.237683 C615.947476,781.480634 617.436929,785.750399 620.415879,789.047103 Z M656.103521,799.711691 C649.668989,806.066784 641.586226,809.244283 631.854989,809.244283 C622.123753,809.244283 614.04099,806.066784 607.606458,799.711691 C601.171926,793.356597 597.954709,785.532006 597.954709,776.237683 C597.954709,766.943359 601.171926,759.098908 607.606458,752.704096 C614.04099,746.309283 622.123753,743.111925 631.854989,743.111925 C641.586226,743.111925 649.668989,746.309283 656.103521,752.704096 C662.538052,759.098908 665.75527,766.943359 665.75527,776.237683 C665.75527,785.532006 662.538052,793.356597 656.103521,799.711691 Z" id="Tasso" fill="#162945"></path>
            </g>
        </g>
    </g>
</svg>