<?xml version="1.0" encoding="UTF-8"?>
<svg width="70px" height="45px" viewBox="0 0 66 96" version="1.1" xmlns="http://www.w3.org/2000/svg" xmlns:xlink="http://www.w3.org/1999/xlink">
    <!-- Generator: Sketch 44.1 (41455) - http://www.bohemiancoding.com/sketch -->
    <title>Group 4 Copy</title>
    <desc>Created with Sketch.</desc>
    <defs>
        <path d="M28.809,88.23 C27.415,88.23 26.248,87.2 25.908,85.667 C25.863,85.401 23.713,72.422 13.375,57.268 L11.7,54.937 C3.91,44.097 0,38.657 0,28.445 C0,12.494 12.548,0 28.566,0 C44.454,0 57.379,12.76 57.379,28.445 C57.375,38.222 50.916,47.409 45.727,54.79 C45.125,55.645 44.541,56.476 43.989,57.277 C33.393,72.47 31.759,85.321 31.744,85.449 C31.37,87.2 30.205,88.23 28.809,88.23 Z" id="path-1"></path>
        <filter x="-12.2%" y="-5.7%" width="124.4%" height="115.9%" filterUnits="objectBoundingBox" id="filter-2">
            <feOffset dx="0" dy="2" in="SourceAlpha" result="shadowOffsetOuter1"></feOffset>
            <feGaussianBlur stdDeviation="2" in="shadowOffsetOuter1" result="shadowBlurOuter1"></feGaussianBlur>
            <feColorMatrix values="0 0 0 0 0   0 0 0 0 0   0 0 0 0 0  0 0 0 0.5 0" type="matrix" in="shadowBlurOuter1"></feColorMatrix>
        </filter>
    </defs>
    <g id="Welcome" stroke="none" stroke-width="1" fill="none" fill-rule="evenodd">
        <g id="Artboard" transform="translate(-442.000000, -262.000000)">
            <g id="Group-4-Copy" transform="translate(446.000000, 264.000000)">
                <g id="Shape" fill-rule="nonzero">
                    <use fill="black" fill-opacity="1" filter="url(#filter-2)" xlink:href="#path-1"></use>
                    <use fill="#FFFFFF" fill-rule="evenodd" xlink:href="#path-1"></use>
                </g>
                <path d="M12,23.633058 C12.2879644,22.4660801 12.6991307,21.3476266 13.2189097,20.2922866 C13.6180015,19.5112673 13.9569481,19.0263156 14.5422452,18.3874785 C27.9217722,5.13968348 38.5001134,33.717798 39.0671151,35.2025523 C39.784028,36.73796 38.9827366,36.8883953 38.69838,36.7444962 C37.7133751,36.4570936 35.0681549,34.2428212 33.2138838,33.0291935 C32.5529058,32.538923 31.9419172,32.2194519 31.9222174,32.1685674 C31.5040784,31.8258512 31.3085438,31.349344 31.115916,30.2558668 C29.7630183,23.9177112 20.4204721,20.2959127 12.1158646,23.5774702 C12.0765403,23.5963484 12.0379222,23.614876 12,23.633058 Z M12.3806508,32.9366761 C12.2899279,32.6093462 12.2244834,32.2806846 12.2244834,31.9690414 C12.2244836,22.6698373 23.1877765,27.0166487 24.643118,27.744063 C26.9619248,28.8730907 28.9719747,34.6737268 29.5775375,34.8163603 C31.081062,35.7951833 31.5463635,36.0585502 31.8052111,36.1904878 C32.7533182,36.757997 34.243367,37.8059189 34.74548,38.1710441 C36.8283044,39.8327671 40.4128924,40.9811755 40.7425408,40.9811762 C40.5591585,39.7069225 43.8387046,38.6635495 43.8387046,38.6635495 C43.8387046,38.6635495 43.8033449,38.1710441 43.6939618,37.3792788 C42.5654854,27.5200486 37.6825629,19.5084603 37.6825629,19.5084603 C37.4057855,19.036286 36.4807188,17.5830617 35.9135267,18.6291718 C30.3094895,11.1207195 22.5651265,12.086598 22.5651265,12.086598 C22.4455243,12.086598 22.3272928,12.0880596 22.2104175,12.0909459 C24.0542553,11.3861115 26.055663,11 28.1472519,11 C37.3322423,11 44.7781482,18.4459059 44.7781482,27.6308963 C44.7781482,29.1522796 44.7781482,31.4408412 43.9556959,33.5137871 C44.5871664,36.2376539 45.1643692,38.8672321 44.9570464,40.2013075 C43.6923982,41.7622484 41.5820099,43.0912 37.7150515,41.2356807 C35.0091239,43.1421701 31.7089388,44.2617926 28.1472519,44.2617926 C20.8174805,44.2617926 14.5952101,39.520017 12.3806508,32.9366761 Z M34.6430313,30.4352407 C34.6430313,30.4352407 34.2797262,30.3233231 34.1061943,30.482676 C33.6129577,31.5015997 36.2999465,32.6567064 36.6913841,32.6567064 C37.2993419,31.8907815 34.6430313,30.4352407 34.6430313,30.4352407 Z M33.7686028,38.5689945 C33.5411997,38.4210856 30.7285027,36.5187336 27.9060429,34.8990208 C28.13782,35.2389718 27.5830806,35.5658244 27.2123289,35.4538012 C26.8633196,35.3850274 24.1224733,33.5557285 22.8850085,33.2801731 C18.9918344,32.0844637 18.5842328,33.4710728 18.5842329,34.6720094 C18.5842329,37.7790774 28.349969,42.5587643 33.7686028,38.5689945 Z M27.4806502,22.40677 C28.9984628,21.9426931 29.4567561,22.129864 30.9278078,22.6725532 C28.4132068,18.8256927 27.2373446,21.39805 27.4806502,22.40677 Z" id="Oval-1-Copy-11" fill="#121435"></path>
            </g>
        </g>
    </g>
</svg>
