<?xml version="1.0" encoding="UTF-8"?>
<svg width="183px" height="185px" viewBox="0 0 183 185" version="1.1" xmlns="http://www.w3.org/2000/svg" xmlns:xlink="http://www.w3.org/1999/xlink">
    <!-- Generator: Sketch 44.1 (41455) - http://www.bohemiancoding.com/sketch -->
    <title>Oval 1 Copy 7</title>
    <desc>Created with Sketch.</desc>
    <defs></defs>
    <g id="Welcome" stroke="none" stroke-width="1" fill="none" fill-rule="evenodd">
        <g id="Artboard" transform="translate(-434.000000, -708.000000)" fill="#162945">
            <g id="Group" transform="translate(288.000000, 40.000000)">
                <path d="M171,743.531128 C172.151832,738.863319 173.796462,734.389602 175.875532,730.168334 C177.471864,727.044325 178.827622,725.104561 181.168759,722.549268 C234.685698,669.559246 276.998138,783.869207 279.266096,789.808095 C282.133685,795.949592 278.928589,796.55132 277.791188,795.975736 C273.851254,794.82615 263.270605,785.969254 255.853682,781.11485 C253.209828,779.15381 250.765927,777.875954 250.687129,777.67242 C249.01461,776.301585 248.232488,774.395598 247.461994,770.021785 C242.050522,744.669716 204.681153,730.182839 171.463448,743.308782 C171.306154,743.384293 171.151685,743.458402 171,743.531128 Z M172.52257,780.744788 C172.159686,779.435497 171.897914,778.120879 171.897914,776.874334 C171.897915,739.67833 215.750129,757.065196 221.571367,759.974789 C230.846392,764.490802 238.886416,787.692839 241.308614,788.263361 C247.322581,792.178567 249.183747,793.232012 250.219114,793.759751 C254.01146,796.029738 259.971525,800.221334 261.979933,801.681803 C270.311049,808.328549 284.649087,812.922083 285.967652,812.922086 C285.234139,807.825182 298.352037,803.651781 298.352037,803.651781 C298.352037,803.651781 298.210601,801.681803 297.773078,798.514811 C293.259271,759.078751 273.728008,727.033098 273.728008,727.033098 C272.620923,725.144442 268.920737,719.331672 266.652018,723.516021 C244.236359,693.482868 213.259583,697.346297 213.259583,697.346297 C212.781185,697.346297 212.308269,697.352144 211.840778,697.363688 C219.215968,694.544412 227.221424,693 235.587597,693 C272.326756,693 302.109729,722.782973 302.109729,759.522132 C302.109729,765.607533 302.109729,774.761579 298.819992,783.053182 C301.345819,793.948411 303.65458,804.466494 302.825307,809.802679 C297.766824,816.046306 289.325455,821.361996 273.85796,813.940081 C263.034485,821.565872 249.834033,826.044264 235.587597,826.044264 C206.269152,826.044264 181.380614,807.077577 172.52257,780.744788 Z M261.570147,770.739265 C261.570147,770.739265 260.116958,770.291604 259.422846,770.929002 C257.449943,775.004608 268.197663,779.624934 269.763379,779.624934 C272.195157,776.561301 261.570147,770.739265 261.570147,770.739265 Z M258.072509,803.27357 C257.162917,802.681947 245.912375,795.072705 234.622782,788.593995 C235.54987,789.95377 233.330961,791.261151 231.847987,790.813068 C230.45198,790.537979 219.488834,783.220944 214.539083,782.118746 C198.966727,777.336013 197.336356,782.882328 197.336356,787.68597 C197.336357,800.11397 236.398448,819.2323 258.072509,803.27357 Z M232.921248,738.626084 C238.992366,736.769817 240.825499,737.518484 246.709578,739.689193 C236.651393,724.302087 231.948047,734.591292 232.921248,738.626084 Z" id="Oval-1-Copy-7"></path>
            </g>
        </g>
    </g>
</svg>