<?xml version="1.0" encoding="UTF-8"?>
<svg width="308px" height="91px" viewBox="0 0 308 91" version="1.1" xmlns="http://www.w3.org/2000/svg" xmlns:xlink="http://www.w3.org/1999/xlink">
    <!-- Generator: Sketch 44 (41411) - http://www.bohemiancoding.com/sketch -->
    <title>Tasso delivery logo</title>
    <desc>Created with Sketch.</desc>
    <defs></defs>
    <g id="Page-1" stroke="none" stroke-width="1" fill="none" fill-rule="evenodd">
        <g id="Group-2" transform="translate(-35.000000, 0.000000)" fill="#162945">
            <g id="Tasso-delivery-logo" transform="translate(40.000000, 5.000000)">
                <path d="M3.29181127e-14,30.5330697 C0.695986454,27.7125794 1.68974179,25.0093686 2.94600514,22.4586979 C3.91057743,20.5710381 4.72978386,19.3989494 6.14439907,17.8549323 C38.4816234,-14.1639066 64.0486104,54.907063 65.4190073,58.4955928 C67.1517272,62.2065479 65.2150712,62.5701379 64.5278048,62.2223454 C62.1471283,61.5277167 55.7538471,56.176001 51.2722252,53.2427621 C49.6746953,52.0578184 48.1979858,51.2856828 48.1503729,51.1626991 C47.1397651,50.334382 46.6671739,49.1827031 46.2016083,46.5398579 C42.9317651,31.2210534 20.3515936,22.467462 0.280035222,30.3987185 C0.184991585,30.4443457 0.0916548382,30.4891253 5.92779992e-12,30.5330697 Z M0.920001849,53.019155 C0.700731973,52.2280255 0.542558003,51.4336771 0.542558003,50.6804611 C0.542558511,28.2050441 27.0399424,38.7109323 30.5573839,40.4690332 C36.1617507,43.1978011 41.0198771,57.2174649 42.4834729,57.5621984 C46.1173691,59.9279337 47.2419648,60.5644698 47.8675783,60.8833523 C50.1590757,62.2549757 53.7604019,64.7877173 54.9739681,65.6701951 C60.0079847,69.6864439 68.6716411,72.4620533 69.4683744,72.4620551 C69.0251543,69.3822879 76.9515495,66.8605406 76.9515495,66.8605406 C76.9515495,66.8605406 76.866088,65.6701951 76.601718,63.756563 C73.8742826,39.9276086 62.0726576,20.564254 62.0726576,20.564254 C61.4037094,19.4230472 59.1678986,15.9107226 57.7970417,18.4390852 C44.2525413,0.291769206 25.5350482,2.62621858 25.5350482,2.62621858 C25.2459795,2.62621858 24.9602236,2.62975133 24.6777455,2.63672716 C29.1341509,0.933200055 33.9713899,0 39.0265894,0 C61.2259613,0 79.2221079,17.9961466 79.2221079,40.1955185 C79.2221079,43.8725778 79.2221079,49.4038442 77.234308,54.4139853 C78.7605207,60.997349 80.1555727,67.3528248 79.6544905,70.5771761 C76.5979389,74.3498427 71.4973027,77.5618102 62.15118,73.0771716 C55.6111738,77.6850008 47.6348959,80.3910369 39.0265894,80.3910369 C21.3111304,80.3910369 6.27241096,68.9305527 0.920001849,53.019155 Z M54.726358,46.97339 C54.726358,46.97339 53.8482791,46.7028943 53.4288667,47.0880371 C52.2367543,49.5506925 58.7309867,52.3424913 59.6770595,52.3424913 C61.1464437,50.4913133 54.726358,46.97339 54.726358,46.97339 Z M52.6129356,66.6320088 C52.0633208,66.274525 45.2652619,61.6766957 38.4436069,57.761982 C39.0037933,58.5836158 37.6630336,59.3735918 36.7669569,59.1028409 C35.9234299,58.9366204 29.2990283,54.5153542 26.3081768,53.8493593 C16.8986928,50.9594273 15.9135532,54.3107483 15.9135532,57.2133141 C15.9135534,64.7228436 39.5165402,76.2749567 52.6129356,66.6320088 Z M37.4154676,27.5692318 C41.0838967,26.4475959 42.1915542,26.8999725 45.7469662,28.2116081 C39.6693807,18.9140602 36.827418,25.1312378 37.4154676,27.5692318 Z" id="Oval-1-Copy-7"></path>
                <path d="M125.504,29.392 L125.504,70 L114.272,70 L114.272,29.392 L100.016,29.392 L100.016,19.672 L139.76,19.672 L139.76,29.392 L125.504,29.392 Z M175.184,70 L165.032,70 L165.032,65.32 C162.247986,68.8240175 158.804021,70.576 154.7,70.576 C150.595979,70.576 147.152014,69.3880119 144.368,67.012 C141.583986,64.6359881 140.192,61.4680198 140.192,57.508 C140.192,53.5479802 141.631986,50.5840098 144.512,48.616 C147.392014,46.6479902 151.327975,45.664 156.32,45.664 L164.384,45.664 L164.384,45.448 C164.384,41.3199794 162.200022,39.256 157.832,39.256 C155.959991,39.256 153.98001,39.6279963 151.892,40.372 C149.80399,41.1160037 148.040007,42.0399945 146.6,43.144 L141.776,36.16 C146.864025,32.4639815 152.671967,30.616 159.2,30.616 C163.904024,30.616 167.743985,31.7919882 170.72,34.144 C173.696015,36.4960118 175.184,40.2159746 175.184,45.304 L175.184,70 Z M164.312,55.24 L164.312,53.368 L157.544,53.368 C153.223978,53.368 151.064,54.7119866 151.064,57.4 C151.064,58.792007 151.579995,59.8599963 152.612,60.604 C153.644005,61.3480037 155.11999,61.72 157.04,61.72 C158.96001,61.72 160.651993,61.1320059 162.116,59.956 C163.580007,58.7799941 164.312,57.2080098 164.312,55.24 Z M209.996,67.12 C207.187986,69.4240115 203.624022,70.576 199.304,70.576 C196.423986,70.576 193.424016,70.0600052 190.304,69.028 C187.183984,67.9959948 184.376012,66.4720101 181.88,64.456 L186.632,57.688 C190.66402,60.8080156 194.959977,62.368 199.52,62.368 C200.912007,62.368 202.015996,62.0920028 202.832,61.54 C203.648004,60.9879972 204.056,60.2560046 204.056,59.344 C204.056,58.4319954 203.492006,57.5920038 202.364,56.824 C201.235994,56.0559962 199.604011,55.3360034 197.468,54.664 C195.331989,53.9919966 193.700006,53.4160024 192.572,52.936 C191.443994,52.4559976 190.160007,51.7600046 188.72,50.848 C185.791985,49.0239909 184.328,46.3240179 184.328,42.748 C184.328,39.1719821 185.767986,36.2560113 188.648,34 C191.528014,31.7439887 195.247977,30.616 199.808,30.616 C204.368023,30.616 208.927977,32.1519846 213.488,35.224 L209.456,42.424 C206.095983,40.1199885 202.748017,38.968 199.412,38.968 C196.075983,38.968 194.408,39.8799909 194.408,41.704 C194.408,42.712005 194.935995,43.5039971 195.992,44.08 C197.048005,44.6560029 198.799988,45.3279962 201.248,46.096 C203.696012,46.8640038 205.435995,47.451998 206.468,47.86 C207.500005,48.268002 208.735993,48.9039957 210.176,49.768 C212.864013,51.4000082 214.208,54.1239809 214.208,57.94 C214.208,61.7560191 212.804014,64.8159885 209.996,67.12 Z M247.436,67.12 C244.627986,69.4240115 241.064022,70.576 236.744,70.576 C233.863986,70.576 230.864016,70.0600052 227.744,69.028 C224.623984,67.9959948 221.816012,66.4720101 219.32,64.456 L224.072,57.688 C228.10402,60.8080156 232.399977,62.368 236.96,62.368 C238.352007,62.368 239.455996,62.0920028 240.272,61.54 C241.088004,60.9879972 241.496,60.2560046 241.496,59.344 C241.496,58.4319954 240.932006,57.5920038 239.804,56.824 C238.675994,56.0559962 237.044011,55.3360034 234.908,54.664 C232.771989,53.9919966 231.140006,53.4160024 230.012,52.936 C228.883994,52.4559976 227.600007,51.7600046 226.16,50.848 C223.231985,49.0239909 221.768,46.3240179 221.768,42.748 C221.768,39.1719821 223.207986,36.2560113 226.088,34 C228.968014,31.7439887 232.687977,30.616 237.248,30.616 C241.808023,30.616 246.367977,32.1519846 250.928,35.224 L246.896,42.424 C243.535983,40.1199885 240.188017,38.968 236.852,38.968 C233.515983,38.968 231.848,39.8799909 231.848,41.704 C231.848,42.712005 232.375995,43.5039971 233.432,44.08 C234.488005,44.6560029 236.239988,45.3279962 238.688,46.096 C241.136012,46.8640038 242.875995,47.451998 243.908,47.86 C244.940005,48.268002 246.175993,48.9039957 247.616,49.768 C250.304013,51.4000082 251.648,54.1239809 251.648,57.94 C251.648,61.7560191 250.244014,64.8159885 247.436,67.12 Z M271.268,58.372 C273.068009,60.36401 275.371986,61.36 278.18,61.36 C280.988014,61.36 283.291991,60.36401 285.092,58.372 C286.892009,56.37999 287.792,53.8000158 287.792,50.632 C287.792,47.4639842 286.892009,44.8720101 285.092,42.856 C283.291991,40.8399899 280.988014,39.832 278.18,39.832 C275.371986,39.832 273.068009,40.8399899 271.268,42.856 C269.467991,44.8720101 268.568,47.4639842 268.568,50.632 C268.568,53.8000158 269.467991,56.37999 271.268,58.372 Z M292.832,64.816 C288.943981,68.6560192 284.060029,70.576 278.18,70.576 C272.299971,70.576 267.416019,68.6560192 263.528,64.816 C259.639981,60.9759808 257.696,56.2480281 257.696,50.632 C257.696,45.0159719 259.639981,40.2760193 263.528,36.412 C267.416019,32.5479807 272.299971,30.616 278.18,30.616 C284.060029,30.616 288.943981,32.5479807 292.832,36.412 C296.720019,40.2760193 298.664,45.0159719 298.664,50.632 C298.664,56.2480281 296.720019,60.9759808 292.832,64.816 Z" id="Tasso"></path>
            </g>
        </g>
    </g>
</svg>